<?xml version="1.0" encoding="UTF-8"?>
<!-- Generator: Adobe Illustrator 23.0.2, SVG Export Plug-In . SVG Version: 6.00 Build 0)  -->
<svg width="48px" height="48px" style="enable-background:new 0 0 48 48" version="1.1" viewBox="0 0 48 48" xml:space="preserve" xmlns="http://www.w3.org/2000/svg" xmlns:cc="http://creativecommons.org/ns#" xmlns:dc="http://purl.org/dc/elements/1.1/" xmlns:rdf="http://www.w3.org/1999/02/22-rdf-syntax-ns#"><metadata><rdf:RDF><cc:Work rdf:about=""><dc:format>image/svg+xml</dc:format><dc:type rdf:resource="http://purl.org/dc/dcmitype/StillImage"/><dc:title/></cc:Work></rdf:RDF></metadata>
<style type="text/css">
	.st0{opacity:0.7;fill:#FFFFFF;}
	.st1{fill:#FFFFFF;}
	.st2{opacity:0.85;fill:#FFFFFF;}
	.st3{opacity:0.5;fill:#FFFFFF;}
	.st4{fill:none;}
</style>

<path d="m22.139 29.939 8.4133-5.0647c-0.57526-2.2426-1.7997-4.2656-3.5195-5.8157-1.72-1.55-3.8588-2.5582-6.149-2.8981-2.2903-0.33997-4.6298 3e-3 -6.7258 0.98697-2.096 0.9836-3.8551 2.5638-5.0572 4.5426z" style="fill:#0364b8;stroke-width:1.7111"/><path d="m14.433 22.778c-1.4854-0.91678-3.1977-1.3998-4.9433-1.3945h-0.11978c-1.7083 0.02266-3.3782 0.5101-4.8306 1.4098-1.4524 0.89971-2.6324 2.1779-3.4136 3.6973-0.78117 1.5194-1.134 3.2228-1.0206 4.9275 0.11339 1.7047 0.68872 3.3463 1.6642 4.7489l12.138-1.9506 8.4286-6.7091z" style="fill:#0078d4;stroke-width:1.7111"/><path d="m30.065 24.891c-1.0424-7.71e-4 -2.0735 0.21214-3.03 0.62622l-4.7125 1.9813 5.1984 6.6048 9.2877 2.0845c0.15427-0.28622 0.27474-0.6028 0.3908-0.90447 1.9482-4.277 2.4605-8.0769 4.7487-8.9678-3.798 1.0372-4.876 1.0106-8.0926-0.51004l0.03771 0.13127c-1.0127-0.58685-2.1417-0.94551-3.3122-1.0246h-3e-3c-0.1711-0.0118-0.34194-0.02103-0.51305-0.02103z" style="fill:#1490df;stroke-width:1.7111"/><path d="m22.336 27.519-20.567 8.6479c0.86612 1.245 2.0208 2.2685 3.3652 2.9706 1.3444 0.70205 2.8387 1.0682 4.3553 1.0674h20.586c1.3805 5.12e-4 2.7353-0.37284 3.9207-1.08 1.1854-0.70735 2.1571-1.7225 2.8123-2.9376z" style="fill:#28a8ea;stroke-width:1.7111"/><g transform="matrix(.77259 0 0 .77259 .22072 10.092)" style="fill:#0078d4"><path class="st1" d="m12 39 26.654-0.02344c3.71-0.0033 7.0435-2.0534 8.7027-5.1996 0.74-1.37 1.2999-2.857 1.2999-4.527 0-5.16-4.2814-9.7281-9.3614-10.068-1.61-0.11-3.6664 0.27349-5.0464 0.87849-1.3535 0.69102-0.58887 3.7048 1.8095 3.2567 3.717-1.4862 7.8644 1.6284 8.5143 5.1914-0.18575 4.2805-4.4424 5.327-10.195 5.3177-18.216 0.06811-23.782-0.1392-32.374-0.07559 2.16 3.11 5.9156 5.253 9.9956 5.2494z" style="fill:#0078d4"/></g><path d="m30.21 7.5737c-0.13432 0.019685-0.26505 0.061536-0.39233 0.12979-1.4699 0.56517 0.69322 4.9528 0.56285 11.981l0.01212-0.01512a7.5283 7.9681 86.292 0 0 0.0046 0.4527 7.5283 7.9681 86.292 0 0 8.4397 6.9986 7.5283 7.9681 86.292 0 0 7.4709-7.4302c0.32225-6.8179 2.6394-10.959 1.2268-11.593-1.9731-1.2025-5.361 4.1399-6.8251 4.3021l0.0075 0.01056a7.5283 7.9681 86.292 0 0-2.855-0.31538 7.5283 7.9681 86.292 0 0-1.5422 0.25351c-1.3639-0.23954-4.0975-5.0692-6.1097-4.7744z" style="fill:#0364b8"/><ellipse transform="rotate(-3.7084)" cx="40.52" cy="19.936" rx="1.4794" ry="1.1099" style="fill:#28a8ea"/><ellipse transform="rotate(-3.7084)" cx="40.458" cy="19.973" rx=".48667" ry=".6416" style="fill:#0364b8"/><ellipse transform="rotate(-3.7084)" cx="33.533" cy="19.533" rx="1.4794" ry="1.1099" style="fill:#28a8ea"/><path d="m41.213 20.483 6.8889 3.1408m0.48227-3.8605-7.3712 0.71964 7.2985 1.2256" style="fill:none;stroke-width:.21858;stroke:#28a8ea"/><path d="m35.684 20.638-6.8314 3.264m-0.5515-3.8512 7.3829 0.58718-7.2753 1.3564" style="fill:none;stroke-width:.21858;stroke:#28a8ea"/><ellipse transform="rotate(-3.7084)" cx="33.485" cy="19.538" rx=".48667" ry=".6416" style="fill:#0364b8"/><path d="m31.266 16.123c-0.02939-3.8156-1.0789-6.6914-0.53746-6.982 0.74667-0.57039 3.8299 3.4872 4.374 3.6351-1.3645 0.57341-2.3592 1.0964-3.8366 3.3469z" style="fill:#0078d4"/><path d="m45.746 16.683c0.52539-3.3092 1.3203-6.8406 0.84736-7.1755-0.63014-0.60914-4.1188 3.2934-4.6515 3.3389 2.0948 1.0127 3.0736 2.4549 3.8041 3.8366z" style="fill:#0078d4"/><path d="m38.488 22.96v-1.01e-4c-4e-3 -7e-3 -8e-3 -0.014-0.01212-0.02103-0.01995-0.03678-0.03813-0.07456-0.05432-0.11317-0.0159-0.03802-0.03008-0.07681-0.04226-0.11619-0.01211-0.03972-0.02211-0.08001-0.03018-0.12072-0.0086-0.04088-0.01512-0.08218-0.01969-0.12371-0.0025-0.02812-4e-3 -0.05634-0.0046-0.08452h-0.01056c-2.05e-4 0.01618-7.21e-4 0.03224-0.0014 0.04829-3e-3 0.04147-8e-3 0.08275-0.01512 0.12375-7e-3 0.04065-0.01617 0.08095-0.02716 0.12072-0.01102 0.03985-0.02427 0.07915-0.03922 0.1177-0.01511 0.0391-0.03227 0.07735-0.06637 0.14097-0.2363 0.41366-0.64786 0.65325-1.094 0.65402-0.6718-7.71e-4 -1.2219-0.53422-1.2434-1.2057m2.6603 0.57965c0.22217 0.38772 0.63506 0.6267 1.0819 0.62623 0.6718-7.74e-4 1.2219-0.53422 1.2434-1.2057" style="fill:none;stroke-width:.2905;stroke:#28a8ea"/><path d="m38.322 20.482a1.2455 1.2455 0 0 0-1.0789 0.62773 1.2455 1.2455 0 0 1 0.03922 0.0046 1.2455 1.2455 0 0 1 0.12072 0.02721 1.2455 1.2455 0 0 1 0.1177 0.03922 1.2455 1.2455 0 0 1 0.11468 0.05128 1.2455 1.2455 0 0 1 0.10713 0.06188 1.2455 1.2455 0 0 1 0.1011 0.07241 1.2455 1.2455 0 0 1 0.09355 0.08149 1.2455 1.2455 0 0 1 0.08603 0.09056 1.2455 1.2455 0 0 1 0.07546 0.09959 1.2455 1.2455 0 0 1 0.06488 0.10563 1.2455 1.2455 0 0 1 0.05435 0.11317 1.2455 1.2455 0 0 1 0.04226 0.11619 1.2455 1.2455 0 0 1 0.03019 0.12072 1.2455 1.2455 0 0 1 0.01969 0.12375 1.2455 1.2455 0 0 1 6e-3 0.12371 1.2455 1.2455 0 0 1-0.0014 0.03922h0.01055a1.2455 1.2455 0 0 1-0.0014-0.03922 1.2455 1.2455 0 0 1 3e-3 -0.08901 1.2455 1.2455 0 0 1 0.01512-0.12374 1.2455 1.2455 0 0 1 0.02716-0.12072 1.2455 1.2455 0 0 1 0.03922-0.1177 1.2455 1.2455 0 0 1 0.05131-0.11468 1.2455 1.2455 0 0 1 0.06185-0.10713 1.2455 1.2455 0 0 1 0.07244-0.1011 1.2455 1.2455 0 0 1 0.08299-0.09355 1.2455 1.2455 0 0 1 0.09056-0.08451 1.2455 1.2455 0 0 1 0.09959-0.07549 1.2455 1.2455 0 0 1 0.10563-0.06491 1.2455 1.2455 0 0 1 0.11317-0.05432 1.2455 1.2455 0 0 1 0.11619-0.04226 1.2455 1.2455 0 0 1 0.12072-0.0317 1.2455 1.2455 0 0 1 0.07997-0.01211 1.2455 1.2455 0 0 0-1.0804-0.62623z" style="fill:#0078d4;stroke-width:.2905;stroke:#28a8ea"/><path d="m36.383 36.184 0.0056 3e-3c-0.30715 0.60751-0.68839 1.1658-1.1319 1.6599-0.4435 0.49409-0.94968 0.92442-1.5054 1.2781-0.55575 0.3536-1.1503 0.62412-1.7686 0.80579-0.61832 0.18167-1.26 0.27489-1.9072 0.27464l17.822 0.01969c-1.1881-2.395-3.7119-4.0708-6.3995-4.0607z" style="fill:#0364b8"/></svg>
