<svg xmlns="http://www.w3.org/2000/svg" viewBox="0 0 33 20">
  <g id="body">
    <path fill="white" d="M11.24,9.89a6.88,6.88,0,0,0-1.88.69,5.36,5.36,0,0,0-1.46,1.17,5.19,5.19,0,0,0-1,1.61,5.59,5.59,0,0,0-.34,2,8.07,8.07,0,0,0,.11,1.34A6.59,6.59,0,0,0,7.05,18H5a3.86,3.86,0,0,1-1.65-.37,4.71,4.71,0,0,1-1.38-1A4.65,4.65,0,0,1,1,15.24a4,4,0,0,1-.35-1.65,4.89,4.89,0,0,1,.64-2.53,4,4,0,0,1,2-1.64,4.59,4.59,0,0,1,.64-.21,4.48,4.48,0,0,1,.66-.12q0-.16,0-.3t0-.3A5.55,5.55,0,0,1,5,6.37,5.67,5.67,0,0,1,6.09,4.59,5.38,5.38,0,0,1,7.8,3.39a5.12,5.12,0,0,1,2.13-.45,5.84,5.84,0,0,1,.65,0,5.17,5.17,0,0,1,.69.13,5.84,5.84,0,0,1,.67.21,3.33,3.33,0,0,1,.6.3,7,7,0,0,1,1.08-1.48A7.18,7.18,0,0,1,15,1,6.71,6.71,0,0,1,16.66.26,6.27,6.27,0,0,1,18.47,0,7,7,0,0,1,21,.48,7.25,7.25,0,0,1,23.21,1.8a7.39,7.39,0,0,1,1.59,2,6.56,6.56,0,0,1,.77,2.48,6.91,6.91,0,0,0-1.17.07,3,3,0,0,0-1.12.39,4.83,4.83,0,0,0-1-1.09,5.87,5.87,0,0,0-1.21-.79,6.16,6.16,0,0,0-1.37-.48,6.59,6.59,0,0,0-1.43-.16,7.17,7.17,0,0,0-2.44.41A7.06,7.06,0,0,0,13.8,5.81a7.6,7.6,0,0,0-1.6,1.79,7.37,7.37,0,0,0-1,2.27ZM30,13a3,3,0,0,1,1.26.35,3.15,3.15,0,0,1,.95.78,3.44,3.44,0,0,1,.6,1.1A4,4,0,0,1,33,16.5a3.58,3.58,0,0,1-.24,1.28,3.68,3.68,0,0,1-.67,1.12,3.42,3.42,0,0,1-1,.79,2.7,2.7,0,0,1-1.26.3H12.68a5.35,5.35,0,0,1-1.94-.33,3.85,3.85,0,0,1-2.32-2.39,5.81,5.81,0,0,1-.3-1.94,3.81,3.81,0,0,1,1.32-3,4.36,4.36,0,0,1,1.4-.81,5.53,5.53,0,0,1,1.69-.32,5.91,5.91,0,0,1,.4-1.76A6.11,6.11,0,0,1,13.79,8a5.59,5.59,0,0,1,1.28-1.19A5.06,5.06,0,0,1,16.72,6a6.66,6.66,0,0,1,1.59-.19A5.35,5.35,0,0,1,21,6.53a5.85,5.85,0,0,1,2,1.92A4.32,4.32,0,0,1,24.21,8a5.86,5.86,0,0,1,1.26-.15,4.65,4.65,0,0,1,1.88.37,4.31,4.31,0,0,1,1.43,1,4.36,4.36,0,0,1,.91,1.51A5.5,5.5,0,0,1,30,12.64Z"/>
  </g>
</svg>
