<svg id="Layer_1" data-name="Layer 1" xmlns="http://www.w3.org/2000/svg" viewBox="0 0 24 24"><title>excel</title><rect width="24" height="24" rx="2" style="fill:#167c3e"/><path d="M6.15,7.14,14,5.33v13.3L6.15,16.81Zm3.08,4.92L7.88,14.59,9,14.66,9.77,13l0-.08a.36.36,0,0,0,0-.11l0-.11a.2.2,0,0,0,0-.07h0s0,.08,0,.11l0,.11A.43.43,0,0,0,10,13l.8,1.77,1.27.07L10.58,12,12,9.29l-1.2.07L10.08,11a.58.58,0,0,0-.08.22l-.06.24h0a1,1,0,0,0-.06-.23A1.31,1.31,0,0,0,9.78,11L9.16,9.46,8,9.52Zm9.58-5.33a.26.26,0,0,1,.14,0,.79.79,0,0,1,.15.12.87.87,0,0,1,.13.15.24.24,0,0,1,.06.14V16.5a.14.14,0,0,1-.06.11.45.45,0,0,1-.13.1l-.16.06-.13,0H14.47v-.89h1.32v-1.3H14.47v-.45h1.32v-1.3H14.47v-.45h1.32v-1.3H14.47v-.45h1.32V9.36H14.47V8.91h1.32V7.61H14.47V6.73Zm-.41.88H16.22v1.3H18.4Zm0,1.75H16.22v1.3H18.4Zm0,1.75H16.22v1.3H18.4Zm0,1.75H16.22v1.3H18.4Zm0,1.75H16.22v1.3H18.4Z" style="fill:#fff"/></svg>