<svg id="Layer_1" data-name="Layer 1" xmlns="http://www.w3.org/2000/svg" viewBox="0 0 24 24"><title>onenote</title><rect width="24" height="24" rx="2" style="fill:#7e3b7b"/><path d="M6.59,7.08l7-1.19V18.06l-7-1.18Zm1.95,7.07.7,0V11.1a.15.15,0,0,1,0-.07.25.25,0,0,0,0-.07s0,0,0,0,0,0,0,0l.07.15.08.15,1.6,3,.93.05V9.49l-.87,0v3.09a.38.38,0,0,0,0,.1.29.29,0,0,0,0,.09h0c-.28-.54-.56-1.07-.86-1.59s-.59-1.05-.88-1.58l-.89,0Zm10.3-4.07c0,.06,0,.1,0,.12s-.05,0-.11,0H18v6.21a.52.52,0,0,1,0,.11.37.37,0,0,1-.05.11.22.22,0,0,1-.07.09.14.14,0,0,1-.1,0H14V15.48h2.63V15H14v-.88h2.63v-.43H14v-.88h2.63v-.44H14v-.87h2.63V11.1H14v-.87h2.63V9.79H14V8.91h2.63V8.48H14V7.16h3.7a.2.2,0,0,1,.19.12.68.68,0,0,1,0,.23V8h.74a.2.2,0,0,1,.11,0s0,.06,0,.12Zm-.17.58a.15.15,0,0,1,.13.09.34.34,0,0,1,0,.16v1.7a.34.34,0,0,1,0,.16.16.16,0,0,1-.13.08h-.26V10.66Zm0,2.63a.15.15,0,0,1,.13.09.32.32,0,0,1,0,.16v1.69a.34.34,0,0,1,0,.16.15.15,0,0,1-.13.09h-.26V13.29Z" style="fill:#fff"/></svg>