<svg xmlns="http://www.w3.org/2000/svg" viewBox="0 0 20 20">
  <title>Artboard 234 copy 2</title>
  <g id="body">
    <path d="M8.5,2.41a1.16,1.16,0,0,1,.1-.49,1.31,1.31,0,0,1,.26-.4,1.56,1.56,0,0,1,.4-.27,1.3,1.3,0,0,1,.49-.09,1.33,1.33,0,0,1,.49.09,1.3,1.3,0,0,1,.66.67,1.16,1.16,0,0,1,.1.49,1.13,1.13,0,0,1-.1.49,1.23,1.23,0,0,1-.27.4,1.05,1.05,0,0,1-.39.27,1.16,1.16,0,0,1-.49.1,1.13,1.13,0,0,1-.49-.1,1.18,1.18,0,0,1-.4-.27,1.2,1.2,0,0,1-.26-.4A1.13,1.13,0,0,1,8.5,2.41ZM8.5,10a1.13,1.13,0,0,1,.1-.49,1.31,1.31,0,0,1,.26-.4,1.56,1.56,0,0,1,.4-.27,1.3,1.3,0,0,1,.49-.1,1.34,1.34,0,0,1,.49.1,1.3,1.3,0,0,1,.66.67,1.25,1.25,0,0,1,0,1,1.24,1.24,0,0,1-1.15.77,1.3,1.3,0,0,1-.49-.1,1.56,1.56,0,0,1-.4-.27,1.31,1.31,0,0,1-.26-.4A1.13,1.13,0,0,1,8.5,10Zm0,7.54A1.13,1.13,0,0,1,8.6,17a1.2,1.2,0,0,1,.26-.4,1.34,1.34,0,0,1,.4-.27,1.13,1.13,0,0,1,.49-.1,1.16,1.16,0,0,1,.49.1,1.19,1.19,0,0,1,.39.27,1.23,1.23,0,0,1,.27.4,1.13,1.13,0,0,1,.1.49,1.16,1.16,0,0,1-.1.49,1.2,1.2,0,0,1-1.15.76,1.3,1.3,0,0,1-.49-.09,1.56,1.56,0,0,1-.4-.27A1.31,1.31,0,0,1,8.6,18,1.16,1.16,0,0,1,8.5,17.49Z" style="fill: #ffffff"/>
  </g>
</svg>
