<svg xmlns="http://www.w3.org/2000/svg" xmlns:xlink="http://www.w3.org/1999/xlink" viewBox="0 0 470 220"><defs><radialGradient id="radial-gradient" cx="-2480.203" cy="467.243" r="12.169" gradientTransform="matrix(0.977, -0.212, 0.205, 0.95, 2558.923, -863.056)" gradientUnits="userSpaceOnUse"><stop offset="0" stop-color="#603813" stop-opacity="0.85"/><stop offset="1" stop-color="#8a5d3b" stop-opacity="0"/></radialGradient><radialGradient id="radial-gradient-2" cx="-2475.864" cy="456.125" r="8.628" gradientTransform="matrix(0.979, -0.202, 0.2, 0.971, 2560.49, -851.024)" gradientUnits="userSpaceOnUse"><stop offset="0" stop-color="#9a6541" stop-opacity="0.847"/><stop offset="1" stop-color="#8a5d3b" stop-opacity="0"/></radialGradient><radialGradient id="radial-gradient-3" cx="-1775.874" cy="-517.234" r="19.924" gradientTransform="matrix(-0.979, 0.202, -0.213, -1.035, -1617.682, -128.167)" gradientUnits="userSpaceOnUse"><stop offset="0" stop-color="#606060"/><stop offset="1" stop-color="#e1dfdd" stop-opacity="0"/></radialGradient><radialGradient id="radial-gradient-4" cx="220.138" cy="170.165" r="18.393" gradientTransform="translate(29.847 -94.758) rotate(6.757) scale(1 1.414)" gradientUnits="userSpaceOnUse"><stop offset="0" stop-color="#1e939e"/><stop offset="0.49" stop-color="#28c2d1"/></radialGradient></defs><title>Dark-FRE-OneDrive-page7</title><g id="Dark_IMG_7" data-name="Dark IMG 7"><path d="M106.64,8.9s3.507-2.148,10.465.532l1.884-6.073A17.9,17.9,0,0,0,106.94,1.812Z" style="fill:#3cc1f4"/><path d="M438.16,107.632s3.506-2.147,10.464.532l1.885-6.072a17.9,17.9,0,0,0-12.05-1.544Z" style="fill:#3cc1f4"/><path d="M26.63,25.737l.876,7.1a.725.725,0,0,0,.874.619L33.2,32.4a.725.725,0,0,0,.565-.79l-.9-7.839a.724.724,0,0,0-.973-.6l-4.8,1.793A.725.725,0,0,0,26.63,25.737Z" style="fill:#f7b547"/><path d="M329.214,210.772l.876,7.1a.725.725,0,0,0,.874.619l4.821-1.055a.724.724,0,0,0,.565-.79l-.9-7.839a.724.724,0,0,0-.973-.6l-4.8,1.793A.725.725,0,0,0,329.214,210.772Z" style="fill:#f7b547"/><path d="M402.788,4.025l.876,7.1a.723.723,0,0,0,.874.619l4.821-1.054a.725.725,0,0,0,.565-.79l-.9-7.839a.725.725,0,0,0-.974-.6l-4.8,1.793A.724.724,0,0,0,402.788,4.025Z" style="fill:#e4636a"/><path d="M36.131,199.234l.877,7.1a.724.724,0,0,0,.873.619L42.7,205.9a.725.725,0,0,0,.565-.79l-.9-7.839a.724.724,0,0,0-.973-.6l-4.8,1.793A.726.726,0,0,0,36.131,199.234Z" style="fill:#e4636a"/><path d="M423.212,186.128l.876,7.1a.724.724,0,0,0,.874.619l4.821-1.054a.725.725,0,0,0,.565-.791l-.9-7.838a.724.724,0,0,0-.973-.6l-4.8,1.793A.724.724,0,0,0,423.212,186.128Z" style="fill:#e4636a"/><path d="M33.174,130.847s1.91-5.861,12.453-9.573l-3.757-8.759a26.833,26.833,0,0,0-15.246,9.959Z" style="fill:#28c2d1"/><path d="M356.866,99.243s6.158.27,12.559,9.432l7.432-5.967a26.829,26.829,0,0,0-13.681-12.019Z" style="fill:#f7b547"/><path d="M131.9,206.97s-.89,4.014-7.65,7.16l3.06,5.573a17.9,17.9,0,0,0,9.479-7.6Z" style="fill:#3cc1f4"/><path d="M105.674,96.423l.876,7.1a.725.725,0,0,0,.874.619l4.821-1.055a.725.725,0,0,0,.565-.79l-.9-7.839a.725.725,0,0,0-.974-.6l-4.8,1.794A.723.723,0,0,0,105.674,96.423Z" style="fill:#e4636a"/><circle cx="234.934" cy="118.305" r="85.665" style="fill:#0078d4"/><path d="M313.815,147.859q-2.772-6.747-11.26-11.972-9.89-6.04-12.092-8.969-3.215-4.31-3.263-12.654A23.145,23.145,0,0,0,283.026,100q-4.168-5.769-13.289-9.483-7.953-3.331-9.44-7.375-1.872-5.206-3.464-10.817l-1.248-4.645a21.109,21.109,0,0,0-10.06-12.5q-8.988-5.19-25.1-1.592-14.13,1.946-20.991,10.955a21.267,21.267,0,0,0-4.619,15.66l.691,4.76q.756,5.782,1.1,11.305.232,4.3-5.754,10.507-6.909,7.017-8.455,13.965a23.145,23.145,0,0,0,1.8,14.749q3.255,7.684,2.007,12.913-.864,3.561-7.56,13.02-5.73,8.156-5.607,15.449c0,.218.023.436.04.653a85.632,85.632,0,0,0,141.4-27.412A12.261,12.261,0,0,0,313.815,147.859Z" style="fill:#f9f9f8"/><g id="Layer1_2_FILL" data-name="Layer1 2 FILL"><path d="M295.366,31.205l5.83-.08s4.431-9.97,5.216-13.433a71.519,71.519,0,0,0,.8-8.915,10.707,10.707,0,0,0-.383-3.545,3.166,3.166,0,0,0-2.394-1.48q-.273-.867-.642-2.234A4.274,4.274,0,0,0,302.94.107q-1.488-.625-1.848,1.027s-2.346,12.081-3.452,12.609-2.187-6.335-2.665-7.268q-.735-1.189-1.463-.9-.8.35-.721,1.761c.168,4.856-1.583,8.5-1.324,10.835S295.366,31.205,295.366,31.205Z" style="fill:#bf8f68"/></g><g id="Layer0_15_FILL" data-name="Layer0 15 FILL"><path d="M256.539,74.782a33.014,33.014,0,0,1-4.693,20.584,31.4,31.4,0,0,1-8.181,8.952,29.3,29.3,0,0,1-11.261,4.936l-.488.1a28.743,28.743,0,0,1-21.837-4.072,32.987,32.987,0,0,1-14.021-18.325,32.376,32.376,0,0,1-.985-3.72,29.825,29.825,0,0,1-.165-11.373,28.376,28.376,0,0,1,3.737-10.07,26.2,26.2,0,0,1,6.878-7.521,24.4,24.4,0,0,1,9.965-4.524l8.433-1.739a25.674,25.674,0,0,1,11.236.227,26.69,26.69,0,0,1,13.248,7.877,29.617,29.617,0,0,1,7.51,14.581A38.884,38.884,0,0,1,256.539,74.782Z" style="fill:#f9f9f8"/></g><g id="Layer1_23_FILL" data-name="Layer1 23 FILL"><path d="M208.585,86.774l-1.452.3a4.97,4.97,0,0,0-3.252,2.233,5.2,5.2,0,0,0,1.525,7.158,4.945,4.945,0,0,0,3.86.719l1.405-.29Z" style="fill:#b5855e"/></g><g id="Layer0_16_FILL" data-name="Layer0 16 FILL"><path d="M235.831,124.822a25.487,25.487,0,0,1-6.51.761,24.231,24.231,0,0,1-5.608-.771,7.129,7.129,0,0,0,1.463-1.375,8.253,8.253,0,0,0,1.62-4.539,16.517,16.517,0,0,0-1.747-8.675l-1.212-10.1,13.422-2.912,1.938,9.209a14.414,14.414,0,0,0,1.175,8.983,8.411,8.411,0,0,0,3.794,4.064,6.845,6.845,0,0,0,1.615.517A27.224,27.224,0,0,1,235.831,124.822Z" style="fill:#b5855e"/></g><g id="Layer0_17_FILL" data-name="Layer0 17 FILL"><path d="M235.068,123.236q-9.326,1.995-10.446,1.136a12.138,12.138,0,0,0,2.175-5.043,12.921,12.921,0,0,0-2.082-9.24q-.285-4.942-.571-9.885l12.884-2q.951,4.578,1.9,9.156a14.516,14.516,0,0,0,1.816,8.739,14.079,14.079,0,0,0,3.736,4.181Q244.406,121.312,235.068,123.236Z" style="fill:url(#radial-gradient)"/></g><g id="Layer0_18_FILL" data-name="Layer0 18 FILL"><path d="M222.353,61.2a19.356,19.356,0,0,1,22.869,14.93l2.708,13.133a18.284,18.284,0,0,1-2.873,14.432,18.558,18.558,0,0,1-12.229,8.325l-.071.015a18.8,18.8,0,0,1-14.6-2.8A18.4,18.4,0,0,1,209.887,97.1L207.18,83.966a18.643,18.643,0,0,1,2.786-14.489,18.928,18.928,0,0,1,12.315-8.268Z" style="fill:#b5855e"/></g><g id="Layer0_21_FILL" data-name="Layer0 21 FILL"><path d="M229.821,102.013l-13.311,2.743-4.971-24.113L224.851,77.9Z" style="fill:url(#radial-gradient-2)"/></g><g id="Layer0_24_FILL" data-name="Layer0 24 FILL"><path d="M228.6,96.089q-.043-.21-1.247-.761a7.5,7.5,0,0,1-1.919-1.2,3.309,3.309,0,0,1-1.183-1.863,2.753,2.753,0,0,1,.518-2.069,8.222,8.222,0,0,0,1.524-4.237l-.164-1.856a17.406,17.406,0,0,1,2.4,7.787A25.691,25.691,0,0,1,228.6,96.089Z" style="fill:#b5855e"/></g><g id="Layer0_25_FILL" data-name="Layer0 25 FILL"><path d="M241.671,57.285q12.021,17.43,12.111,18.574a14.371,14.371,0,0,1-6.29,2.967A14.484,14.484,0,0,1,230.461,68.46l-12.4,2.557A13.857,13.857,0,0,1,215.619,81.4a14.207,14.207,0,0,1-9.037,5.859,14.359,14.359,0,0,1-7.413-.361q-.2-.613,2.251-11.29L203.9,65.071Z" style="fill:#f9f9f8"/></g><g id="Layer0_26_FILL" data-name="Layer0 26 FILL"><path d="M223.911,67.7l-10.454,2.155-3.893-18.887,10.454-2.155Z" style="fill:url(#radial-gradient-3)"/></g><g id="Layer0_27_FILL" data-name="Layer0 27 FILL"><path d="M224.287,69.878a3.311,3.311,0,0,1,.614-2.307,2.926,2.926,0,0,1,4.182-.862,3.1,3.1,0,0,1,1.407,1.89Z" style="fill:#e1dfdd"/></g><g id="Layer0_28_FILL" data-name="Layer0 28 FILL"><path d="M218.084,71.156a3.311,3.311,0,0,1,.615-2.306,2.925,2.925,0,0,1,4.181-.862,3.1,3.1,0,0,1,1.407,1.89Z" style="fill:#e1dfdd"/></g><g id="Layer1_23_FILL-2" data-name="Layer1 23 FILL"><path d="M245.354,79.316l1.452-.3a4.967,4.967,0,0,1,3.87.766,5.2,5.2,0,0,1,1.43,7.177,4.937,4.937,0,0,1-3.261,2.186l-1.405.29Z" style="fill:#b5855e"/></g><path d="M298.171,86.057c-11.611,18.444-43.928,31.888-43.928,31.888-5.821,2.985-7.155,12.177-2.945,17.3,4.013,4.884,10.434,8.646,16.236,5.952,0,0,37.925-16.188,48.419-47.057,4.759-14-4.109-50.091-13.465-65.495L295.116,30.1S307.436,71.342,298.171,86.057Z" style="fill:#bf8f68"/><path d="M286.283,98.764a121.879,121.879,0,0,1-14.43,10.153,144.925,144.925,0,0,1-17.61,9.028c-5.821,2.985-7.155,12.177-2.945,17.3,4.013,4.883,10.434,8.645,16.236,5.951a134.625,134.625,0,0,0,20.274-11.953c5.574-3.984,10.486-7.539,15.839-13.588a64.573,64.573,0,0,0,12.19-20.13c1.279-3.616,1.521-6.019,2-10.826.287-2.847.282-4.712-.8-6.484a8.01,8.01,0,0,0-3.959-3.153c-7.334-4.458-10.249-4.4-11.5-3.35-.246.208-.367.523-.832,3.125-.655,3.661-.575,4.207-.9,5.76a21.526,21.526,0,0,1-2.832,6.945,25.2,25.2,0,0,1-3.045,3.9A70.572,70.572,0,0,1,286.283,98.764Z" style="fill:#28c2d1"/><path d="M223.884,130.824c-.957-.455-3.452.25-4.37-1.1-.355-.521-.207-.9-.5-1.154-.921-.8-4.441,1.375-7.524,4.01-9.429,8.058-14.524,20.2-21.229,35.167-.177.4-.636,1.386-1.151,2.743-.989,2.6-1.581,4.585-1.747,5.154-.61,2.091-1.951,6.128-3.5,11.438a85.485,85.485,0,0,0,20.125,11.1c4.953-8.307,7.728-12.852,9.689-15.4,4.757-6.182,10.46-16.853,14.494-36.541C231.816,141.52,229.348,133.417,223.884,130.824Z" style="fill:url(#radial-gradient-4)"/><path d="M275.313,183.273c-3.4-9.99-4.551-15.961-5.126-20.881a112.553,112.553,0,0,1-.664-14.049c.053-2.074.2-4.485.485-9.307.539-9.032.661-8.6.559-9.676-.647-6.784-4.614-14.38-8.813-14.545a4.167,4.167,0,0,0-2.4.7c-5.325,3.55-14.645,4.882-23.017,6.013-19.43,2.627-33.746,15.8-31.947,29.638a21.046,21.046,0,0,0,3.441,8.594,43.816,43.816,0,0,1,3.666,6.051,31.551,31.551,0,0,1,1.665,4.54,47.481,47.481,0,0,1,1.781,11.6,128.643,128.643,0,0,1-1.021,19.421,85.757,85.757,0,0,0,64.6-9.32C277.263,188.826,276.2,185.887,275.313,183.273Z" style="fill:#28c2d1"/><path d="M236.787,128.481c11.474-1.872,11.748-7.066,16.8-9.86-4.438.887-10.633,1.844-17.274,2.707a44.65,44.65,0,0,0-18.027,6.362A47.322,47.322,0,0,0,236.787,128.481Z" style="fill:#b5855e"/><g style="opacity:0.699999988079071"><path d="M216.55,89.242a3.63,3.63,0,0,1,5.218-3.2,2.791,2.791,0,0,1,1.466,1.886.526.526,0,0,1-.405.624.518.518,0,0,1-.364-.054l-.166-.091a2.7,2.7,0,0,0-2.413-.359,5.427,5.427,0,0,0-2.281,1.548l-.094.083a.578.578,0,0,1-.961-.436Z" style="fill:#221f1f"/></g><g style="opacity:0.699999988079071"><path d="M231.482,86.314a3.631,3.631,0,0,1,5.218-3.2A2.788,2.788,0,0,1,238.166,85a.525.525,0,0,1-.768.57l-.166-.092a2.706,2.706,0,0,0-2.414-.358,5.433,5.433,0,0,0-2.281,1.548l-.094.083a.578.578,0,0,1-.961-.436Z" style="fill:#221f1f"/></g><path d="M226.216,102.447a18.274,18.274,0,0,0,4.515-.716,19.014,19.014,0,0,0,4.1-2l.033-.02a.579.579,0,0,1,.794.2.588.588,0,0,1,.073.4,5.818,5.818,0,0,1-4.1,4.283,5.966,5.966,0,0,1-5.814-1.152.574.574,0,0,1,.357-.989Z" style="fill:#9a653d"/><circle cx="234.934" cy="118.458" r="85.665" style="fill:none"/><g id="Layer1_2_FILL-2" data-name="Layer1 2 FILL"><path d="M295.315,31.45l5.83-.081s4.432-9.97,5.216-13.432a71.518,71.518,0,0,0,.8-8.916,10.711,10.711,0,0,0-.383-3.545A3.162,3.162,0,0,0,304.387,4q-.273-.867-.642-2.235A4.283,4.283,0,0,0,302.89.351q-1.49-.625-1.848,1.027S298.7,13.46,297.589,13.987,295.4,7.652,294.924,6.72q-.735-1.189-1.463-.9-.8.348-.72,1.76c.167,4.856-1.584,8.5-1.324,10.836S295.315,31.45,295.315,31.45Z" style="fill:#bf8f68"/></g><path d="M298.12,86.3c-11.611,18.444-43.928,31.887-43.928,31.887-.237,1.878-.516,4.556-.656,7.788-.19,4.41-.285,6.614.258,8.142,1.96,5.511,10.969,6.966,13.689,7.323,0,0,37.925-16.188,48.419-47.056,4.76-14-4.109-50.091-13.465-65.5l-7.372,1.454S307.385,71.586,298.12,86.3Z" style="fill:#bf8f68"/><path d="M286.232,99.008a121.673,121.673,0,0,1-14.43,10.154,145.04,145.04,0,0,1-17.61,9.027c-5.487,2.353-4.867,11.6-2.945,17.3,2.273,6.736,8.844,12.412,15.262,12.229a12.468,12.468,0,0,0,4.555-1.138c8.374-3.358,14.2-8.668,18.2-12.477,8.235-7.831,12.352-11.746,15.119-15.561a95.856,95.856,0,0,0,11.4-22.772c.491-1.426.846-2.779.868-2.872a56.032,56.032,0,0,0,1.137-7.955c.287-2.846.283-4.712-.8-6.484a8.016,8.016,0,0,0-3.959-3.153c-7.333-4.458-10.248-4.405-11.5-3.349-.246.207-.367.522-.832,3.125-.654,3.66-.574,4.207-.9,5.76a21.537,21.537,0,0,1-2.832,6.945,25.141,25.141,0,0,1-3.045,3.9A70.407,70.407,0,0,1,286.232,99.008Z" style="fill:#28c2d1"/><path d="M66.257,149.848s3.039-.4,4.548,5.022c.623,2.235.856,5.344,2.891,6.435,2.787,1.493,10.1-2.538,10.1-2.538s-2.189-.249-3.065-4.6c-1.095-5.451-4.189-6.258-4.189-6.258Z" style="fill:#c3f2f4"/><path d="M75.43,153.6a7.154,7.154,0,0,1,1.933,3.328c.7,2.731,1.244,6.763,4.234,6.482,2.032-.19,9.709-2,9.709-2s-2.758-.433-3.457-5.1c-.54-3.6-2.477-4.562-2.477-4.562Z" style="fill:#c3f2f4"/><path d="M83.8,158.767a33.163,33.163,0,0,1-5.291,2.273,31.637,31.637,0,0,1-1.145-4.111A7.154,7.154,0,0,0,75.43,153.6l4.926-.918a14.247,14.247,0,0,1,.378,1.479C81.61,158.518,83.8,158.767,83.8,158.767Z" style="fill:#7bddef"/><path d="M94.3,157.943l-10.391,2.322a3.989,3.989,0,0,1-2.489,3.158c2.669.121,11.537-2.37,11.537-2.37A2.247,2.247,0,0,0,94.3,157.943Z" style="fill:#7bddef"/><path d="M367.266,30.246s-3.039-.4-4.548,5.022c-.623,2.234-.856,5.344-2.891,6.434-2.787,1.494-10.1-2.538-10.1-2.538s2.189-.249,3.065-4.6c1.1-5.451,4.189-6.259,4.189-6.259Z" style="fill:#c3f2f4"/><path d="M358.093,34a7.154,7.154,0,0,0-1.933,3.328c-.7,2.731-1.244,6.762-4.234,6.482-2.032-.191-9.709-2-9.709-2s2.758-.434,3.457-5.1c.54-3.6,2.477-4.563,2.477-4.563Z" style="fill:#c3f2f4"/><path d="M349.724,39.164a33.118,33.118,0,0,0,5.291,2.274,31.637,31.637,0,0,0,1.145-4.111A7.154,7.154,0,0,1,358.093,34l-4.926-.918a14.183,14.183,0,0,0-.378,1.479C351.913,38.915,349.724,39.164,349.724,39.164Z" style="fill:#7bddef"/><path d="M339.227,38.341l10.391,2.322a3.988,3.988,0,0,0,2.489,3.157c-2.669.121-11.537-2.369-11.537-2.369A2.247,2.247,0,0,1,339.227,38.341Z" style="fill:#7bddef"/><path d="M367.687,166.981a7.35,7.35,0,1,1-4.611-9.317A7.35,7.35,0,0,1,367.687,166.981Z" style="fill:#28c2d1"/><path d="M363.076,157.664a7.349,7.349,0,1,1-9.314,4.61,7.35,7.35,0,0,1,9.314-4.61m.446-1.319a8.714,8.714,0,1,0,3,1.741,8.7,8.7,0,0,0-3-1.741Z" style="fill:#28c2d1"/><path d="M359.071,167.6a1,1,0,0,1-.9-.55l-1.67-3.318a1,1,0,0,1,1.787-.9l1.225,2.433,5.055-2.48a1,1,0,0,1,.88,1.795l-5.943,2.916A.991.991,0,0,1,359.071,167.6Z" style="fill:#fff"/><path d="M66.652,60.981a4.018,4.018,0,0,1,5.29,2.061l.289.721s.651-.278.756-.32a3.119,3.119,0,1,1,2.316,5.78l-8.445,3.385a3.9,3.9,0,1,1-2.894-7.221c.024-.01.048-.018.073-.027a4.088,4.088,0,0,1,2.615-4.379m-.516-1.372a5.941,5.941,0,0,0-2.9,2.473,5.419,5.419,0,0,0-.746,2.42,5.756,5.756,0,0,0-2.19,2.465,5.124,5.124,0,0,0,2.809,7.009,5.837,5.837,0,0,0,4.319-.042l8.445-3.385a4.978,4.978,0,0,0,2.693-2.524,4.384,4.384,0,0,0-2.4-5.989,4.932,4.932,0,0,0-3.037-.178,5.585,5.585,0,0,0-6.989-2.249Z" style="fill:#3cc1f4"/><path d="M420.715,42.369a7.926,7.926,0,1,1-6.134,9.38,7.927,7.927,0,0,1,6.134-9.38m-.307-1.47a9.41,9.41,0,1,0,3.745-.025,9.4,9.4,0,0,0-3.745.025Z" style="fill:#28c2d1"/><path d="M421.876,53.862a1,1,0,0,1-.541-.16l-3.365-2.169a1,1,0,1,1,1.082-1.681l2.535,1.633,3.384-5.135a1,1,0,0,1,1.67,1.1l-3.929,5.962A1,1,0,0,1,421.876,53.862Z" style="fill:#28c2d1"/></g></svg>