<svg id="Layer_1" data-name="Layer 1" xmlns="http://www.w3.org/2000/svg" xmlns:xlink="http://www.w3.org/1999/xlink" viewBox="0 0 977.49 693.52"><defs><clipPath id="clip-path" transform="translate(0 -0.49)"><rect width="976" height="693" style="fill:none"/></clipPath></defs><title>Light Mode congratulations</title><g style="clip-path:url(#clip-path)"><g id="a"><rect x="0.06" y="518.8" width="976.64" height="171.56" style="fill:#2ebbe8"/><circle cx="490.82" cy="477.97" r="35.6" style="fill:#fcb713"/><path d="M309,458.35c1.58,0,2.73.55,3.83.55a43.32,43.32,0,0,1,85.2-8.81,30.71,30.71,0,0,1,22.94-9.9,32.07,32.07,0,0,1,31.68,29.15,28.19,28.19,0,0,1,15.3,7.16,17.76,17.76,0,0,1,14.17-7.7,18.24,18.24,0,0,1,18,18.16,17.78,17.78,0,0,1-18,17.61H307.88c-12-.55-21.3-10.46-21.3-23.11a22.71,22.71,0,0,1,22.29-23.11H309Z" transform="translate(0 -0.49)" style="fill:#fff"/><path d="M599.67,482.28c-1.57,0-2.72.55-3.82.55a43.32,43.32,0,0,0-85.2-8.81,30.77,30.77,0,0,0-22.94-9.91A32.08,32.08,0,0,0,456,493.27a28.17,28.17,0,0,0-15.3,7.15,17.79,17.79,0,0,0-14.18-7.7,18.26,18.26,0,0,0-18,18.16,17.78,17.78,0,0,0,18,17.61H600.75c12-.55,21.3-10.52,21.3-23.12a22.7,22.7,0,0,0-22.3-23.09Z" transform="translate(0 -0.49)" style="fill:#fff"/><path d="M127.58,270.66c2.23,0,3.73.76,5.23.76a59.23,59.23,0,0,1,116.56-12,42,42,0,0,1,31.37-13.53A43.85,43.85,0,0,1,324,285.72a38.49,38.49,0,0,1,20.77,9.83c4.48-6,11.2-10.52,19.43-10.52a25,25,0,0,1,24.68,24.81,24.3,24.3,0,0,1-24.54,24.07H277.65C306.22,444,239,399.66,239,399.66c-107.53,0-112.94-65.75-112.94-65.75h0c-16.43-.76-29.13-14.29-29.13-31.59S110.41,270.66,127.58,270.66Z" transform="translate(0 -0.49)" style="fill:#deecf9"/><path d="M411,342.8h-4.35c2.17-5.51,4.34-12.11,4.34-17.62a40.4,40.4,0,0,0-40-40.77h-.2a39.2,39.2,0,0,0-39.14,35.25,43.34,43.34,0,0,0-30.45-13.21c-20.65,0-39.14,17.63-40.23,38.56a53.45,53.45,0,0,0-13-2.2c-22.83,0-40.24,17.62-40.24,40.76,0,22.06,17.33,39.67,40.24,39.67H411c21.73,0,40.23-17.63,40.23-39.67a40.4,40.4,0,0,0-40-40.76H411Z" transform="translate(0 -0.49)" style="fill:#fff"/><path d="M898.15,259.63H893.8c2.17-5.51,4.35-12.11,4.35-17.62a40.4,40.4,0,0,0-40-40.77h-.2a39.21,39.21,0,0,0-39.15,35.25,43.32,43.32,0,0,0-30.44-13.21c-20.65,0-39.15,17.62-40.23,38.56a53.94,53.94,0,0,0-13.05-2.21c-22.82,0-40.23,17.63-40.23,40.77,0,22.05,17.33,39.66,40.23,39.66h163.1c21.74,0,40.24-17.62,40.24-39.66a40.4,40.4,0,0,0-40-40.76Z" transform="translate(0 -0.49)" style="fill:#deecf9"/><path d="M523.34,403.33H891.81c4.56-21.11-8.31-49.2-23.86-61.53-17-13.47-34.87-13.93-53.77-4.87-1.58-6.14-2.65-11.94-4.4-17.41-9.36-29.3-29.93-47.13-54.19-47.14-25.2,0-45.47,17-54.81,47.25-2.27,7.33-4.51,8.64-10.59,8.05C665.29,325.32,647,339.2,635.4,370c-11-16.12-23.91-25.21-40.42-23.54s-28.5,13.14-37.08,30.56c-18.55-7.37-34.54-3.53-43.38,9.25a10.85,10.85,0,0,0,8.82,17Z" transform="translate(0 -0.49)" style="fill:#fff"/><rect x="0.06" y="509.52" width="976.64" height="183.97" style="fill:#00b2c3"/><path d="M574.11,655c0,1.21-3.51,2.12-7.58,2.12H451.43c-4.06,0-7.58-.91-7.58-2.12h0c0-1.36,3.52-2.29,7.58-2.29h115.1C570.58,652.68,574.11,653.6,574.11,655Z" transform="translate(0 -0.49)" style="fill:#2ebbe8"/><path d="M565,663.43c0,1.43-2.74,2.63-6,2.63h-91.1c-3.27,0-5.42-1.2-5.42-2.63h0c0-1.45,2.16-2.41,5.42-2.41h91.12C562.2,661,565,662,565,663.43Z" transform="translate(0 -0.49)" style="fill:#2ebbe8"/><path d="M551.08,670.77c0,1-2.38,1.92-4.73,1.92H469.86c-2.38,0-4.73-1-4.73-1.92h0c0-1.2,2.33-2.14,4.73-2.14h76.51C548.7,668.69,551.08,669.65,551.08,670.77Z" transform="translate(0 -0.49)" style="fill:#2ebbe8"/><path d="M526,677.67a2.18,2.18,0,0,1-2.1,1.92h-33.8a2.14,2.14,0,0,1-2.1-1.92h0a2.18,2.18,0,0,1,2.1-2.15H524a2.2,2.2,0,0,1,2,2.15Z" transform="translate(0 -0.49)" style="fill:#2ebbe8"/><path d="M485,661a1.93,1.93,0,0,0,0-3.85h0v-.71h15.76v5H484.45Z" transform="translate(0 -0.49)" style="fill:#2ebbe8"/><path d="M514.94,661c-1.2,0-2.42-1-2.42-1.91s1.23-1.92,2.42-1.92v-.71H499.19v5h16Z" transform="translate(0 -0.49)" style="fill:#2ebbe8"/><path d="M517.71,668.69c-.89,0-1.82-.47-1.82-1.2s.93-1.45,1.82-1.45v-.47H496V666a1.78,1.78,0,0,1,1.79,1.45c0,.71-.89,1.2-1.79,1.2l-.3.48H517.7Z" transform="translate(0 -0.49)" style="fill:#2ebbe8"/><path d="M532.27,648.23c0,1-1.58,1.9-3.32,1.9H478.1c-1.83,0-3-.86-3-1.9h0c0-1.06,1.2-1.75,3-1.75h50.81C530.69,646.5,532.27,647.14,532.27,648.23Z" transform="translate(0 -0.49)" style="fill:#2ebbe8"/><path d="M517.71,652.78c-.89,0-1.82-.47-1.82-1.2s.93-1.45,1.82-1.45v-.47H496v.47a1.78,1.78,0,0,1,1.79,1.45c0,.71-.89,1.2-1.79,1.2l-.3.48H517.7Z" transform="translate(0 -0.49)" style="fill:#2ebbe8"/><path d="M517.64,675.49c-.9,0-1.83-.47-1.83-1.2s.93-1.45,1.83-1.45v-.5H495.87v.48a1.79,1.79,0,0,1,1.8,1.44c0,.71-.9,1.21-1.8,1.21l-.3.47h22.05Z" transform="translate(0 -0.49)" style="fill:#2ebbe8"/><g style="opacity:0.20000000298023224"><path d="M690.83,580.89c0,1-1.13,1.78-2.45,1.78H651.14c-1.31,0-2.46-.76-2.46-1.78h0c0-1.14,1.13-1.91,2.46-1.91h37.24A2.2,2.2,0,0,1,690.83,580.89Z" transform="translate(0 -0.49)" style="fill:#273b86;opacity:0.20000000298023224;isolation:isolate"/><path d="M725.39,587.91c0,.88-1.13,1.58-2.45,1.58H685.7c-1.31,0-2.46-.65-2.46-1.58h0c0-1,1.14-1.57,2.46-1.57h37.17C724.24,586.27,725.39,586.93,725.39,587.91Z" transform="translate(0 -0.49)" style="fill:#273b86;opacity:0.20000000298023224;isolation:isolate"/><path d="M662.1,604.14c0,.88-1.13,1.57-2.46,1.57H622.4c-1.3,0-2.45-.64-2.45-1.57h0c0-1,1.13-1.58,2.45-1.58h37.23C661,602.51,662.1,603.16,662.1,604.14Z" transform="translate(0 -0.49)" style="fill:#273b86;opacity:0.20000000298023224;isolation:isolate"/><path d="M687.78,612.48c0,.89-1.14,1.58-2.46,1.58H648.1c-1.31,0-2.46-.65-2.46-1.58h0c0-1,1.13-1.57,2.46-1.57h37.22C686.64,610.8,687.78,611.46,687.78,612.48Z" transform="translate(0 -0.49)" style="fill:#273b86;opacity:0.20000000298023224;isolation:isolate"/><path d="M805,547.24c0,1-1.13,1.78-2.46,1.78H765.28c-1.31,0-2.46-.76-2.46-1.78h0c0-1.13,1.13-1.91,2.46-1.91H802.5C803.82,545.33,805,546.09,805,547.24Z" transform="translate(0 -0.49)" style="fill:#273b86;opacity:0.20000000298023224;isolation:isolate"/><path d="M863.65,546.15c0,.88-1.13,1.58-2.46,1.58H824c-1.31,0-2.46-.65-2.46-1.58h0c0-1,1.14-1.57,2.46-1.57h37.22C862.52,544.51,863.65,545.17,863.65,546.15Z" transform="translate(0 -0.49)" style="fill:#273b86;opacity:0.20000000298023224;isolation:isolate"/><path d="M855.19,556.64c0,.88-1.13,1.58-2.45,1.58H815.59c-1.31,0-2.46-.65-2.46-1.58h0c0-1,1.14-1.57,2.46-1.57h37.22C854.13,555,855.19,555.67,855.19,556.64Z" transform="translate(0 -0.49)" style="fill:#273b86;opacity:0.20000000298023224;isolation:isolate"/><path d="M819.89,579.17c0,.88-1.13,1.57-2.46,1.57H780.21c-1.3,0-2.45-.64-2.45-1.57h0c0-1,1.13-1.58,2.45-1.58h37.18C818.74,577.53,819.89,578.19,819.89,579.17Z" transform="translate(0 -0.49)" style="fill:#273b86;opacity:0.20000000298023224;isolation:isolate"/><path d="M756.68,545.7H654.07c-1.58,0-2.86.64-2.86,1.57s1.33,1.5,2.86,1.5h17.6a1.26,1.26,0,0,1,0,2.49h-3.6a1.47,1.47,0,0,0-1.57,1.35.81.81,0,0,0,0,.22,1.58,1.58,0,0,0,1.44,1.7h9.35a1,1,0,0,1,.93,1,.86.86,0,0,1-.93.77h-7.66a1.37,1.37,0,0,0-1.24,1.39,1.34,1.34,0,0,0,1.24,1.24h20.29a1.34,1.34,0,0,0,1.25-1.24,1.38,1.38,0,0,0-1.25-1.39h-1.4a.87.87,0,0,1-.94-.77,1,1,0,0,1,.94-1h5.78a1.74,1.74,0,0,0,1.72-1.7,1.58,1.58,0,0,0-1.57-1.58h-7.33a1.25,1.25,0,0,1,0-2.49h37.1a1.25,1.25,0,1,1,0,2.49H717a1.57,1.57,0,0,0-1.71,1.42.76.76,0,0,0,0,.15,1.74,1.74,0,0,0,1.72,1.7h5.84a1,1,0,0,1,1,1,.89.89,0,0,1-.93.77H707.7c-1,0-2,.61-2,1.39s1,1.24,2,1.24h15.17a1,1,0,0,1,1,1,.89.89,0,0,1-1,.77h-3.26a1.31,1.31,0,0,0-1.07,1.38,1.27,1.27,0,0,0,1.07,1.25h17.44a1.26,1.26,0,0,0,1.07-1.25,1.3,1.3,0,0,0-1.07-1.38h-3a.87.87,0,0,1-.93-.77,1,1,0,0,1,.93-1h6.82c1,0,2-.61,2-1.24s-1-1.39-2-1.39H734a.86.86,0,0,1-.92-.77,1,1,0,0,1,.93-1h9.21a1.57,1.57,0,0,0,1.58-1.57.56.56,0,0,0,0-.13,1.47,1.47,0,0,0-1.35-1.57h-3.82a1.26,1.26,0,0,1-1-1.44,1.24,1.24,0,0,1,1-1.05h17c2.41,0,4.49-.63,4.49-1.48S759.11,545.7,756.68,545.7Z" transform="translate(0 -0.49)" style="fill:#273b86;opacity:0.20000000298023224;isolation:isolate"/><path d="M727.27,573.69h24.35a1,1,0,0,1,.55.9c0,.61-.46,1.2-.9,1.2h-5.51a1.51,1.51,0,1,0-.16,3h25.16a1.39,1.39,0,0,0,1.48-1.28v-.17a1.58,1.58,0,0,0-1.48-1.57H762c-.44,0-.88-.6-.88-1.2a1,1,0,0,1,.55-.9H783.9c2,0,3.73-.76,3.73-1.88s-1.73-1.76-3.73-1.76H727.27c-2,0-3.74.76-3.74,1.76S725.27,573.69,727.27,573.69Z" transform="translate(0 -0.49)" style="fill:#273b86;opacity:0.20000000298023224;isolation:isolate"/><path d="M755.57,555.78h24.36a1,1,0,0,1,.55.9c0,.61-.46,1.2-.9,1.2h-5.52a1.51,1.51,0,0,0-.15,3h25.16a1.39,1.39,0,0,0,1.48-1.28v-.17a1.58,1.58,0,0,0-1.48-1.58H790.3c-.45,0-.89-.6-.89-1.2a1,1,0,0,1,.55-.9h22.25c2,0,3.73-.75,3.73-1.87s-1.73-1.77-3.73-1.77H755.57c-2,0-3.73.76-3.73,1.77S753.57,555.78,755.57,555.78Z" transform="translate(0 -0.49)" style="fill:#273b86;opacity:0.20000000298023224;isolation:isolate"/><g style="opacity:0.20000000298023224"><path d="M362.32,611.76c0,1.21-2.77,2.11-6,2.11H265.8c-3.15,0-6-.9-6-2.11h0c0-1.34,2.78-2.25,6-2.25h90.56C359.56,609.51,362.32,610.41,362.32,611.76Z" transform="translate(0 -0.49)" style="fill:#273b86"/><path d="M314.57,620.13a2.63,2.63,0,0,1-2.61,2.6H272a2.44,2.44,0,0,1-2.39-2.47s0-.09,0-.13h0a2.23,2.23,0,0,1,2.09-2.38H312a2.44,2.44,0,0,1,2.61,2.26Z" transform="translate(0 -0.49)" style="fill:#273b86"/><path d="M329.4,627.46c0,1-1.58,1.91-3.15,1.91H275.51c-1.58,0-3.15-.94-3.15-1.91h0c0-1.18,1.57-2.12,3.15-2.12h50.7C327.82,625.34,329.4,626.28,329.4,627.46Z" transform="translate(0 -0.49)" style="fill:#273b86"/><path d="M309.69,634.22a1.92,1.92,0,0,1-1.58,1.91H281.4a1.92,1.92,0,0,1-1.58-1.91h0a2,2,0,0,1,1.58-2.12h26.65A2,2,0,0,1,309.69,634.22Z" transform="translate(0 -0.49)" style="fill:#273b86"/><path d="M277.44,617.75a1.92,1.92,0,0,0,1.75-2.06,1.89,1.89,0,0,0-1.75-1.74v-.71h12.37v5H277Z" transform="translate(0 -0.49)" style="fill:#273b86"/><path d="M301,617.75a1.9,1.9,0,1,1,0-3.8v-.71H288.63v5h12.6Z" transform="translate(0 -0.49)" style="fill:#273b86"/><path d="M303.14,625.34a1.36,1.36,0,0,1-1.44-1.18,1.58,1.58,0,0,1,1.44-1.44v-.47H286v.47a1.58,1.58,0,0,1,1.42,1.44,1.32,1.32,0,0,1-1.42,1.18l-.23.47h17.33Z" transform="translate(0 -0.49)" style="fill:#273b86"/><path d="M344.24,604.61c0,1.32-2,2.41-4.35,2.41H273.54c-2.38,0-4-1.1-4-2.41h0c0-1.34,1.57-2.21,4-2.21h66.35C342.25,602.36,344.24,603.24,344.24,604.61Z" transform="translate(0 -0.49)" style="fill:#273b86"/><path d="M325,595.79c0,1-1.57,1.92-3.35,1.92H270.37c-1.84,0-3.05-.87-3.05-1.92h0c0-1.06,1.21-1.77,3.05-1.77h51.25C323.43,594,325,594.73,325,595.79Z" transform="translate(0 -0.49)" style="fill:#273b86"/><path d="M303.14,609.61a1.36,1.36,0,0,1-1.44-1.19,1.58,1.58,0,0,1,1.44-1.43v-.47H286V607a1.57,1.57,0,0,1,1.42,1.43,1.32,1.32,0,0,1-1.42,1.19l-.23.47h17.33Z" transform="translate(0 -0.49)" style="fill:#273b86"/><path d="M303.09,632.08a1.33,1.33,0,0,1-1.43-1.18,1.56,1.56,0,0,1,1.43-1.43V629H286v.48a1.57,1.57,0,0,1,1.42,1.43,1.32,1.32,0,0,1-1.42,1.18l-.23.47H303Z" transform="translate(0 -0.49)" style="fill:#273b86"/></g><path d="M443.93,640.74H421.3c-1.3,0-2.62-.9-2.64-1.81s1.31-1.84,2.6-1.84h5.38c1.57,0,2.78-.87,2.78-2s-1.29-2.18-2.78-2.18H384.2c-1.58,0-2.79.88-2.79,2.18s1.29,2,2.79,2h4.72v.16a2.13,2.13,0,0,1,2.3,1.82,2,2,0,0,1-1.92,1.77h-11c-2.37,0-3.91.91-3.91,2.28s1.57,2.5,3.91,2.5H444c2.33,0,4.3-1.13,4.3-2.5S446.26,640.74,443.93,640.74Z" transform="translate(0 -0.49)" style="fill:#273b86;opacity:0.20000000298023224;isolation:isolate"/><g style="opacity:0.20000000298023224"><path d="M446.29,586.89H392.53a1.21,1.21,0,0,1-.88-1.09,1.56,1.56,0,0,1,1.43-1.43h8.81c1.41,0,2.61-.85,2.61-1.89s-1.2-1.74-2.61-1.74h-40c-1.43,0-2.38.68-2.38,1.74s.94,1.89,2.38,1.89h14a1.56,1.56,0,0,1,1.42,1.43,1.19,1.19,0,0,1-.86,1.09H355.73c-3.15,0-6,.91-6,2.25s2.77,2.11,6,2.11h11.64v.1a1.9,1.9,0,0,1,0,3.79h-5.46a2.25,2.25,0,0,0-2.38,2.09,1.4,1.4,0,0,0,0,.29,2.43,2.43,0,0,0,2.24,2.6h14.17a1.58,1.58,0,0,1,1.42,1.44,1.31,1.31,0,0,1-1.38,1.18H365.5c-1.58,0-3.15.94-3.15,2.13s1.57,1.9,3.15,1.9h10.4v.1a1.57,1.57,0,0,1,1.42,1.43,1.34,1.34,0,0,1-1.42,1.18h-4.58a2,2,0,0,0-1.57,2.13,1.89,1.89,0,0,0,1.57,1.9H398a1.92,1.92,0,0,0,1.57-1.9,2,2,0,0,0-1.57-2.13h-5a1.35,1.35,0,0,1-1.43-1.18,1.57,1.57,0,0,1,1.43-1.43v-.1h23.19c1.58,0,3.15-.94,3.15-1.9s-1.58-2.13-3.15-2.13H393.05a1.33,1.33,0,0,1-1.4-1.18,1.58,1.58,0,0,1,1.43-1.44h8.81a2.62,2.62,0,0,0,2.61-2.6,2.44,2.44,0,0,0-2.49-2.38H390.86a1.88,1.88,0,0,1-1.89-1.9,1.9,1.9,0,0,1,1.89-1.9v-.09h55.36c3.15,0,6-.9,6-2.11S449.49,586.89,446.29,586.89Z" transform="translate(0 -0.49)" style="fill:#273b86"/><path d="M411.1,553.82h30a2,2,0,0,0,2-1.92,1.82,1.82,0,0,0-1.88-1.77H411.1a1.67,1.67,0,0,0-1.78,1.55v.21a1.81,1.81,0,0,0,1.7,1.92Z" transform="translate(0 -0.49)" style="fill:#273b86"/><path d="M461.15,524.27H434.9c-.94,0-1.57.47-1.57,1.2a1.39,1.39,0,0,0,1.49,1.3h26.34c.93,0,1.72-.58,1.72-1.29S462.08,524.27,461.15,524.27Z" transform="translate(0 -0.49)" style="fill:#273b86"/><path d="M339.64,561H313.31c-.94,0-1.57.47-1.57,1.2a1.39,1.39,0,0,0,1.49,1.3h26.34c.93,0,1.72-.58,1.72-1.29S340.56,561,339.64,561Z" transform="translate(0 -0.49)" style="fill:#273b86"/><path d="M324.07,580.62H269.43c-2,0-3.25.47-3.25,1.2s1.29,1.29,3.25,1.29h54.64c1.94,0,3.58-.58,3.58-1.29S326,580.62,324.07,580.62Z" transform="translate(0 -0.49)" style="fill:#273b86"/><path d="M387.81,562.27h26.32c.93,0,1.71-.59,1.71-1.29s-.78-1.21-1.71-1.21H387.81c-.95,0-1.58.48-1.58,1.21a1.4,1.4,0,0,0,1.49,1.3Z" transform="translate(0 -0.49)" style="fill:#273b86"/><path d="M275.07,556a1.32,1.32,0,0,0-1.08-1.39h-3a.87.87,0,0,1-.92-.79,1,1,0,0,1,.92-.94h6.83c1,0,2-.62,2-1.25s-1-1.38-2-1.38H271a.88.88,0,0,1-.91-.78,1,1,0,0,1,.93-.94h9.25a1.58,1.58,0,0,0,1.58-1.57s0-.09,0-.13a1.47,1.47,0,0,0-1.35-1.58h-3.82a1.25,1.25,0,0,1-1-1.44,1.23,1.23,0,0,1,1-1h17c2.41,0,4.49-.64,4.49-1.49s-2.08-1.57-4.49-1.57H191c-1.58,0-2.86.65-2.86,1.57s1.33,1.5,2.86,1.5h17.6a1.27,1.27,0,0,1,1,1.45,1.24,1.24,0,0,1-1,1H205a1.47,1.47,0,0,0-1.57,1.35.89.89,0,0,0,0,.23,1.57,1.57,0,0,0,1.44,1.69h9.35a1,1,0,0,1,.93.94.87.87,0,0,1-.93.78h-7.66a1.36,1.36,0,0,0-1.24,1.38,1.34,1.34,0,0,0,1.24,1.25h20.29a1.35,1.35,0,0,0,1.25-1.25,1.37,1.37,0,0,0-1.25-1.38h-1.4a.88.88,0,0,1-.94-.78,1,1,0,0,1,.94-.94h5.78a1.74,1.74,0,0,0,1.72-1.7,1.57,1.57,0,0,0-1.57-1.58h-7.33a1.25,1.25,0,0,1,0-2.49h37.1a1.25,1.25,0,0,1,0,2.49H254a1.57,1.57,0,0,0-1.71,1.43.76.76,0,0,0,0,.15,1.74,1.74,0,0,0,1.72,1.7h5.8a1,1,0,0,1,.94.94.89.89,0,0,1-.93.78h-15.2c-1,0-2,.61-2,1.38s1,1.25,2,1.25h15.17a1,1,0,0,1,.95.94.88.88,0,0,1-.95.77h-3.26a1.31,1.31,0,0,0-1.07,1.39,1.26,1.26,0,0,0,1.07,1.24h17.44a1.26,1.26,0,0,0,1.14-1.24Z" transform="translate(0 -0.49)" style="fill:#273b86"/><path d="M391.92,554.69a1.31,1.31,0,0,0-1.07-1.39h-3a.88.88,0,0,1-.93-.78,1,1,0,0,1,.93-.95h6.82c1,0,2.05-.61,2.05-1.24s-1-1.39-2.05-1.39h-6.85a.87.87,0,0,1-.92-.77,1,1,0,0,1,.93-.95h9.22a1.57,1.57,0,0,0,1.58-1.57.62.62,0,0,0,0-.13,1.46,1.46,0,0,0-1.34-1.57h-3.82a1.26,1.26,0,0,1,0-2.49h17c2.41,0,4.48-.63,4.48-1.48s-2.07-1.58-4.48-1.58H307.83c-1.57,0-2.85.65-2.85,1.58s1.32,1.5,2.85,1.5h17.6a1.26,1.26,0,0,1,1.05,1.44,1.27,1.27,0,0,1-1.05,1.05h-3.59a1.45,1.45,0,0,0-1.57,1.34.88.88,0,0,0,0,.23,1.57,1.57,0,0,0,1.44,1.7h9.35a1,1,0,0,1,.92,1,.86.86,0,0,1-.92.77H323.4a1.38,1.38,0,0,0-1.25,1.39,1.35,1.35,0,0,0,1.25,1.24h20.29a1.33,1.33,0,0,0,1.24-1.24,1.37,1.37,0,0,0-1.24-1.39h-1.4a.88.88,0,0,1-1-.77,1,1,0,0,1,1-1h5.78a1.74,1.74,0,0,0,1.72-1.7,1.58,1.58,0,0,0-1.57-1.58h-7.33a1.25,1.25,0,1,1,0-2.49H378a1.25,1.25,0,0,1,0,2.49H370.8a1.58,1.58,0,0,0-1.71,1.42v.15a1.72,1.72,0,0,0,1.71,1.7h5.77a1,1,0,0,1,.94,1,.87.87,0,0,1-.92.77H361.4c-1,0-2,.61-2,1.39s1,1.24,2,1.24h15.2a1,1,0,0,1,.95.95.89.89,0,0,1-.95.77h-3.26a1.29,1.29,0,0,0-1.07,1.38,1.26,1.26,0,0,0,1.07,1.24h17.49A1.26,1.26,0,0,0,391.92,554.69Z" transform="translate(0 -0.49)" style="fill:#273b86"/><path d="M424.21,540.51h26.26c.93,0,1.72-.41,1.72-.9s-.79-.82-1.72-.82H424.21c-.95,0-1.58.33-1.58.82S423.26,540.51,424.21,540.51Z" transform="translate(0 -0.49)" style="fill:#273b86"/></g><path d="M649.84,539.65H547.25c-1.58,0-2.85.64-2.85,1.57s1.32,1.5,2.85,1.5h17.6a1.26,1.26,0,0,1,0,2.49h-3.59a1.47,1.47,0,0,0-1.58,1.35v.23a1.58,1.58,0,0,0,1.45,1.69h9.34a1,1,0,0,1,.93.94.86.86,0,0,1-.93.77h-7.65a1.38,1.38,0,0,0-1.25,1.39,1.33,1.33,0,0,0,1.25,1.24H583.1a1.32,1.32,0,0,0,1.24-1.24,1.37,1.37,0,0,0-1.24-1.39h-1.4a.88.88,0,0,1-1-.77,1,1,0,0,1,1-.94h5.7a1.74,1.74,0,0,0,1.72-1.7,1.59,1.59,0,0,0-1.57-1.59h-7.33a1.25,1.25,0,1,1,0-2.49h37.11a1.25,1.25,0,0,1,0,2.49h-7.18a1.57,1.57,0,0,0-1.71,1.43.76.76,0,0,0,0,.15,1.74,1.74,0,0,0,1.72,1.7h5.78a1,1,0,0,1,1,.94.89.89,0,0,1-.93.77H600.76c-1,0-2,.62-2,1.39s1,1.24,2,1.24H616a1,1,0,0,1,.95.95.88.88,0,0,1-.95.77h-3.2a1.31,1.31,0,0,0-1.07,1.39,1.26,1.26,0,0,0,1.07,1.24h17.49a1.26,1.26,0,0,0,1.07-1.24,1.31,1.31,0,0,0-1.07-1.39h-3a.87.87,0,0,1-.93-.77,1,1,0,0,1,.93-.95h6.82c1,0,2-.61,2-1.24s-1-1.39-2-1.39h-6.86a.86.86,0,0,1-.91-.77,1,1,0,0,1,.93-.94h9.21a1.57,1.57,0,0,0,1.58-1.57.56.56,0,0,0,0-.13,1.47,1.47,0,0,0-1.35-1.58h-3.82a1.26,1.26,0,0,1,0-2.49h17c2.41,0,4.49-.63,4.49-1.48S652.25,539.65,649.84,539.65Z" transform="translate(0 -0.49)" style="fill:#273b86;opacity:0.20000000298023224;isolation:isolate"/><path d="M620.48,567.64h24.35a1,1,0,0,1,.56.9c0,.61-.46,1.2-.9,1.2H639a1.51,1.51,0,1,0-.15,3H664a1.37,1.37,0,0,0,1.48-1.28.49.49,0,0,0,0-.17,1.56,1.56,0,0,0-1.48-1.57h-8.83c-.45,0-.89-.6-.89-1.2a1,1,0,0,1,.56-.9h22.24c2,0,3.73-.76,3.73-1.88s-1.73-1.76-3.73-1.76H620.48c-2,0-3.73.75-3.73,1.76S618.43,567.64,620.48,567.64Z" transform="translate(0 -0.49)" style="fill:#273b86;opacity:0.20000000298023224;isolation:isolate"/><path d="M657.93,590.18H633.57a1,1,0,0,1-.55-.9c0-.61.46-1.2.9-1.2h5.47a1.51,1.51,0,1,0,.15-3H614.41a1.39,1.39,0,0,0-1.48,1.28v.17a1.58,1.58,0,0,0,1.48,1.57h8.78c.44,0,.88.6.88,1.2a1,1,0,0,1-.55.9H601.3c-2,0-3.74.76-3.74,1.88s1.74,1.76,3.74,1.76h56.63c2,0,3.73-.76,3.73-1.76S659.86,590.18,657.93,590.18Z" transform="translate(0 -0.49)" style="fill:#273b86;opacity:0.20000000298023224;isolation:isolate"/><g style="opacity:0.20000000298023224"><path d="M184.74,630.46c0,1.31-3,2.27-6.42,2.27H80.65c-3.45,0-6.42-1-6.42-2.27h0c0-1.45,3-2.42,6.42-2.42h97.67C181.75,628,184.74,629,184.74,630.46Z" transform="translate(0 -0.49)" style="fill:#273b86"/><path d="M177,639.48c0,1.58-2.32,2.8-5.06,2.8H94.77c-2.78,0-4.6-1.27-4.6-2.8h0c0-1.57,1.82-2.56,4.6-2.56H172C174.69,636.92,177,637.94,177,639.48Z" transform="translate(0 -0.49)" style="fill:#273b86"/><path d="M109.21,636.92a2.06,2.06,0,0,0,0-4.1v-.76h13.33v5.36H108.71Z" transform="translate(0 -0.49)" style="fill:#273b86"/><path d="M134.6,636.92a2,2,0,0,1,0-4.1v-.76H121.28v5.36h13.58Z" transform="translate(0 -0.49)" style="fill:#273b86"/><path d="M149.22,623.29c0,1.1-1.29,2-2.82,2H103.32c-1.57,0-2.57-.93-2.57-2h0c0-1.12,1-1.86,2.57-1.86h43C147.91,621.42,149.22,622.15,149.22,623.29Z" transform="translate(0 -0.49)" style="fill:#273b86"/><path d="M136.89,628.13a1.46,1.46,0,0,1-1.58-1.28,1.67,1.67,0,0,1,1.58-1.57v-.5H118.46v.5a1.57,1.57,0,0,1,1.57,1.57h0a1.41,1.41,0,0,1-1.54,1.28h0l-.25.5h18.68Z" transform="translate(0 -0.49)" style="fill:#273b86"/><path d="M265.11,628.34c0,1-2,2.07-4,2.07H196.23c-2,0-4-1-4-2.07h0c0-1.27,2-2.28,4-2.28h64.88C263.1,626,265.11,627.07,265.11,628.34Z" transform="translate(0 -0.49)" style="fill:#273b86"/><path d="M243.88,635.62a2.1,2.1,0,0,1-1.77,2.07H213.37a2.07,2.07,0,0,1-1.77-2.06h0a2.15,2.15,0,0,1,1.77-2.29H242.1a2.16,2.16,0,0,1,1.78,2.29Z" transform="translate(0 -0.49)" style="fill:#273b86"/><path d="M259.14,621.54c0,1-1.57,2.07-3.15,2.07H206.2c-1.58,0-3.15-1-3.15-2.07h0c0-1.27,1.57-2.28,3.15-2.28H256C257.6,619.26,259.14,620.27,259.14,621.54Z" transform="translate(0 -0.49)" style="fill:#273b86"/><path d="M236.81,626.06a1.44,1.44,0,0,1-1.58-1.27,1.68,1.68,0,0,1,1.58-1.58v-.5H218.34v.5a1.58,1.58,0,0,1,1.58,1.58h0a1.43,1.43,0,0,1-1.55,1.28h0l-.25.5H236.8Z" transform="translate(0 -0.49)" style="fill:#273b86"/><path d="M236.76,633.31a1.45,1.45,0,0,1-1.58-1.28,1.67,1.67,0,0,1,1.58-1.57V630H218.3v.5a1.57,1.57,0,0,1,1.57,1.57h0a1.41,1.41,0,0,1-1.54,1.28h0l-.26.5h18.72Z" transform="translate(0 -0.49)" style="fill:#273b86"/></g><path d="M175,535.91H72.4c-1.58,0-2.86.65-2.86,1.58s1.33,1.5,2.86,1.5H90a1.26,1.26,0,0,1,0,2.49H86.48a1.47,1.47,0,0,0-1.58,1.34v.23a1.59,1.59,0,0,0,1.45,1.7h9.27a1,1,0,0,1,.93,1,.87.87,0,0,1-.93.77H88a1.37,1.37,0,0,0-1.25,1.39A1.35,1.35,0,0,0,88,549.1h20.29a1.35,1.35,0,0,0,1.24-1.24,1.37,1.37,0,0,0-1.24-1.39h-1.4a.88.88,0,0,1-1-.77,1,1,0,0,1,1-1h5.76a1.74,1.74,0,0,0,1.72-1.7,1.57,1.57,0,0,0-1.57-1.58h-7.4a1.25,1.25,0,0,1,0-2.49h37.16a1.25,1.25,0,1,1,0,2.49h-7.23a1.58,1.58,0,0,0-1.71,1.42c0,.05,0,.1,0,.15a1.74,1.74,0,0,0,1.72,1.7h5.83a1,1,0,0,1,1,1,.89.89,0,0,1-.93.77H126c-1,0-2,.61-2,1.39s1,1.24,2,1.24h15.2a1,1,0,0,1,1,.94.9.9,0,0,1-1,.78h-3.24a1.31,1.31,0,0,0-1.08,1.38,1.29,1.29,0,0,0,1.08,1.25h17.48a1.27,1.27,0,0,0,1.07-1.25,1.3,1.3,0,0,0-1.07-1.38h-3a.87.87,0,0,1-.93-.78,1,1,0,0,1,.93-.94h6.82c1,0,2-.61,2-1.24s-1-1.39-2-1.39h-6.87a.86.86,0,0,1-.91-.77,1,1,0,0,1,.93-1h9.21a1.57,1.57,0,0,0,1.58-1.57v-.13a1.47,1.47,0,0,0-1.35-1.57H158a1.26,1.26,0,0,1,0-2.49h17c2.41,0,4.48-.63,4.48-1.48S177.4,535.91,175,535.91Z" transform="translate(0 -0.49)" style="fill:#273b86;opacity:0.20000000298023224;isolation:isolate"/><path d="M135.85,587.09H238.44c1.58,0,2.85.65,2.85,1.58s-1.32,1.5-2.85,1.5h-17.6a1.26,1.26,0,0,0,0,2.49h3.59A1.46,1.46,0,0,1,226,594v.23a1.58,1.58,0,0,1-1.45,1.7h-9.34a1,1,0,0,0-.93,1,.87.87,0,0,0,.93.77h7.66a1.32,1.32,0,0,1,0,2.63h-20.3a1.32,1.32,0,0,1,0-2.63H204a.89.89,0,0,0,.95-.77,1,1,0,0,0-.95-1h-5.78a1.73,1.73,0,0,1-1.71-1.7,1.57,1.57,0,0,1,1.57-1.58h7.33a1.25,1.25,0,0,0,0-2.49H168.3a1.25,1.25,0,1,0,0,2.49h7.18a1.57,1.57,0,0,1,1.71,1.42.76.76,0,0,1,0,.15,1.74,1.74,0,0,1-1.72,1.7H169.7a1,1,0,0,0-.95,1,.89.89,0,0,0,.93.77h15.19c1,0,2,.61,2,1.38s-1,1.25-2,1.25h-15.2a1,1,0,0,0-.95.94.9.9,0,0,0,.95.78h3.26a1.29,1.29,0,0,1,1.07,1.38,1.28,1.28,0,0,1-1.07,1.25H155.44a1.28,1.28,0,0,1-1.07-1.25,1.29,1.29,0,0,1,1.07-1.38h3a.87.87,0,0,0,.92-.78,1,1,0,0,0-.92-.94h-6.83c-1,0-2-.62-2-1.25s1-1.38,2-1.38h6.86a.86.86,0,0,0,.91-.77,1,1,0,0,0-.93-1h-9.2a1.58,1.58,0,0,1-1.58-1.57.57.57,0,0,1,0-.13,1.45,1.45,0,0,1,1.34-1.57h3.83a1.27,1.27,0,0,0,1-1.45,1.25,1.25,0,0,0-1-1h-17c-2.41,0-4.49-.63-4.49-1.48S133.44,587.09,135.85,587.09Z" transform="translate(0 -0.49)" style="fill:#273b86;opacity:0.20000000298023224;isolation:isolate"/><path d="M51.73,585.11H76.08a1,1,0,0,1,.55.9c0,.61-.45,1.2-.9,1.2h-5.5a1.51,1.51,0,1,0-.16,3H95.24A1.39,1.39,0,0,0,96.72,589v-.17a1.58,1.58,0,0,0-1.48-1.57H86.48c-.44,0-.88-.6-.88-1.2a1,1,0,0,1,.55-.9h22.21c2,0,3.73-.76,3.73-1.88s-1.73-1.76-3.73-1.76H51.73c-2,0-3.74.75-3.74,1.76S49.73,585.11,51.73,585.11Z" transform="translate(0 -0.49)" style="fill:#273b86;opacity:0.20000000298023224;isolation:isolate"/><path d="M186.78,557.82H114.32c-2.56,0-4.73.67-4.73,1.58s2.22,1.57,4.73,1.57h1.8v.35c1.16,0,2,.52,2,1.07s-.71,1-1.7,1h-9.67c-2.07,0-3.43.54-3.43,1.34s1.37,1.47,3.43,1.47h57.74c2,0,3.78-.67,3.78-1.47s-1.74-1.34-3.78-1.34h-19.9c-1.14,0-2.3-.52-2.32-1s1.15-1.07,2.28-1.09V561H186.8c2.55,0,4.73-.64,4.73-1.57S189.33,557.82,186.78,557.82Z" transform="translate(0 -0.49)" style="fill:#273b86;opacity:0.20000000298023224;isolation:isolate"/><path d="M256.23,565.94H183.77c-2.56,0-4.73.66-4.73,1.57s2.22,1.58,4.73,1.58h1.8v.34c1.16,0,2,.52,2,1.08s-.71.94-1.7,1H128c-2.08,0-3.44.53-3.44,1.33s1.37,1.47,3.44,1.47H234c2.05,0,3.78-.66,3.78-1.47s-1.73-1.33-3.78-1.33h-19.9c-1.13,0-2.3-.52-2.31-1.06s1.15-1.07,2.28-1.09v-.26h42.22c2.55,0,4.72-.65,4.72-1.58S258.78,565.94,256.23,565.94Z" transform="translate(0 -0.49)" style="fill:#273b86;opacity:0.20000000298023224;isolation:isolate"/></g><path d="M346.65,230.83c1.33,0,2.23.46,3.14.46a35.48,35.48,0,0,1,69.79-7.21A25.22,25.22,0,0,1,438.37,216a26.26,26.26,0,0,1,25.94,23.89,23,23,0,0,1,12.6,5.86,14.56,14.56,0,0,1,11.63-6.3,14.94,14.94,0,0,1,14.76,14.86,14.56,14.56,0,0,1-14.7,14.42H345.75a18.91,18.91,0,0,1,.9-37.81Z" transform="translate(0 -0.49)" style="fill:#fff"/><path d="M517.42,272.23c1.33,0,2.23.46,3.15.46a35.47,35.47,0,0,1,69.78-7.21,25.17,25.17,0,0,1,18.79-8.11,26.25,26.25,0,0,1,25.94,23.88,23,23,0,0,1,12.6,5.86,14.56,14.56,0,0,1,11.63-6.3,14.94,14.94,0,0,1,14.76,14.87,14.56,14.56,0,0,1-14.69,14.41H516.52a18.91,18.91,0,0,1,.75-37.81h.15Z" transform="translate(0 -0.49)" style="fill:#fff"/><path d="M661,83.85h.9a58.63,58.63,0,0,1,116.79-7.31,40.93,40.93,0,1,1,31.69,66.65H661c-16.3,0-29-13.69-29-30.12a28.72,28.72,0,0,1,28.21-29.21Z" transform="translate(0 -0.49)" style="fill:#deecf9"/><path d="M353.12,58.89h-4.35c2.17-5.52,4.35-12.12,4.35-17.63a40.41,40.41,0,0,0-40-40.77h-.2a39.21,39.21,0,0,0-39.15,35.26,43.31,43.31,0,0,0-30.45-13.22c-20.65,0-39.13,17.63-40.24,38.62A54.58,54.58,0,0,0,190,59c-22.82,0-40.23,17.63-40.23,40.77,0,22,17.33,39.66,40.23,39.66H353.12c21.74,0,40.23-17.63,40.23-39.66a40.41,40.41,0,0,0-40-40.83Z" transform="translate(0 -0.49)" style="fill:#deecf9"/><path d="M497.36,324.91A13.63,13.63,0,0,1,509,331.4,13.64,13.64,0,0,1,527.75,327a13.93,13.93,0,0,1,2.49,2A12.31,12.31,0,0,0,509,328.5a12.31,12.31,0,0,0-21.28.44,13.6,13.6,0,0,1,9.68-4Z" transform="translate(0 -0.49)" style="fill:#2350a2"/><path d="M612.61,240.94a13.62,13.62,0,0,1,11.61,6.49A13.64,13.64,0,0,1,643,243a14.17,14.17,0,0,1,2.51,2,12.31,12.31,0,0,0-21.28-.44,12.33,12.33,0,0,0-21.29.44A13.63,13.63,0,0,1,612.61,240.94Z" transform="translate(0 -0.49)" style="fill:#2350a2"/><path d="M529.84,182.86a13.63,13.63,0,0,1,11.61,6.49,13.64,13.64,0,0,1,18.77-4.47,13.82,13.82,0,0,1,2.51,2,12.33,12.33,0,0,0-21.28-.44,12.32,12.32,0,0,0-21.28.44,13.6,13.6,0,0,1,9.67-4Z" transform="translate(0 -0.49)" style="fill:#2350a2"/><path d="M538.38,598.31c0,1.45-2.57,2.52-5.54,2.52H448.78c-3,0-5.54-1.07-5.54-2.52h0c0-1.58,2.56-2.7,5.54-2.7h84C535.81,595.65,538.38,596.73,538.38,598.31Z" transform="translate(0 -0.49)" style="fill:#2ebbe8"/><path d="M512.83,608.36a3.26,3.26,0,0,1-3.32,3.15h-50.8a3,3,0,0,1-3-2.93v-.22h0a2.77,2.77,0,0,1,2.68-2.86,2,2,0,0,1,.35,0h50.81a3,3,0,0,1,3.3,2.75.34.34,0,0,1,0,.1Z" transform="translate(0 -0.49)" style="fill:#2ebbe8"/><path d="M531.45,621c0,1.23-2,2.43-4,2.43H463c-2,0-4-1.2-4-2.43h0c0-1.57,2-2.69,4-2.69h64.58C529.43,618.28,531.45,619.49,531.45,621Z" transform="translate(0 -0.49)" style="fill:#2ebbe8"/><path d="M548.62,631.53c0,1.23-1.94,2.43-3.84,2.43H482.37c-1.94,0-3.85-1.21-3.85-2.43h0c0-1.58,1.91-2.69,3.85-2.69h62.39C546.67,628.84,548.62,630,548.62,631.53Z" transform="translate(0 -0.49)" style="fill:#2ebbe8"/><path d="M465.65,605.52a2.28,2.28,0,0,0,0-4.53v-.86H481.4v6H465.05Z" transform="translate(0 -0.49)" style="fill:#2ebbe8"/><path d="M495.6,605.52a2.28,2.28,0,1,1-.53-4.53,1.57,1.57,0,0,1,.53,0v-.86H479.85v6h16Z" transform="translate(0 -0.49)" style="fill:#2ebbe8"/><path d="M512.83,590.43c0,1.23-1.57,2.25-3.32,2.25H458.7c-1.82,0-3-1-3-2.25h0c0-1.24,1.2-2.06,3-2.06h50.82C511.32,588.3,512.83,589.12,512.83,590.43Z" transform="translate(0 -0.49)" style="fill:#2ebbe8"/><path d="M498.31,595.75c-.9,0-1.83-.56-1.83-1.41a1.91,1.91,0,0,1,1.83-1.72V592H476.54v.56a1.9,1.9,0,0,1,1.8,1.72c0,.85-.9,1.42-1.8,1.42l-.3.56h22.05Z" transform="translate(0 -0.49)" style="fill:#2ebbe8"/><path d="M459.45,569.24c0-1.45,2-2.52,4.33-2.52h65.69c2.31,0,4.33,1.08,4.33,2.52h0c0,1.58-2,2.7-4.33,2.7H463.78C461.39,572,459.45,570.85,459.45,569.24Z" transform="translate(0 -0.49)" style="fill:#2ebbe8"/><path d="M479.42,577.21A2.48,2.48,0,0,1,482,575h39.73a2.26,2.26,0,0,1,2.36,2.14v.11h0A2.11,2.11,0,0,1,522,579.3l-.24,0H482a2.33,2.33,0,0,1-2.6-2v0Z" transform="translate(0 -0.49)" style="fill:#2ebbe8"/><path d="M490.78,571.83a1.43,1.43,0,0,1,1.43,1.42,1.72,1.72,0,0,1-1.43,1.72v.56h17V575a1.7,1.7,0,0,1-1.4-1.72,1.41,1.41,0,0,1,1.4-1.42l.24-.57H490.7Z" transform="translate(0 -0.49)" style="fill:#2ebbe8"/><path d="M512.83,590.43c0,1.23-1.57,2.25-3.32,2.25H458.7c-1.82,0-3-1-3-2.25h0c0-1.24,1.2-2.06,3-2.06h50.82C511.32,588.3,512.83,589.12,512.83,590.43Z" transform="translate(0 -0.49)" style="fill:#2ebbe8"/><path d="M459.45,569.24c0-1.45,2-2.52,4.33-2.52h65.69c2.31,0,4.33,1.08,4.33,2.52h0c0,1.58-2,2.7-4.33,2.7H463.78C461.39,572,459.45,570.85,459.45,569.24Z" transform="translate(0 -0.49)" style="fill:#2ebbe8"/><path d="M479.42,577.21A2.48,2.48,0,0,1,482,575h39.73a2.26,2.26,0,0,1,2.36,2.14v.11h0A2.11,2.11,0,0,1,522,579.3l-.24,0H482a2.33,2.33,0,0,1-2.6-2v0Z" transform="translate(0 -0.49)" style="fill:#2ebbe8"/><path d="M490.78,571.83a1.43,1.43,0,0,1,1.43,1.42,1.72,1.72,0,0,1-1.43,1.72v.56h17V575a1.7,1.7,0,0,1-1.4-1.72,1.41,1.41,0,0,1,1.4-1.42l.24-.57H490.7Z" transform="translate(0 -0.49)" style="fill:#2ebbe8"/><path d="M977.49,363.72l-95.85-89.23-264.5,242,360.35.38Z" transform="translate(0 -0.49)" style="fill:#106ebe"/><path d="M977.49,363.72l-.23,32.58v61.5L881.39,275.13Z" transform="translate(0 -0.49)" style="fill:#005a9e"/><path d="M977.5,363.72l-95.86-89.23-111,101.65L825,359.61l-14,59.06L882.41,364l45.81,46,3.15-34.71,46.12,6.16Z" transform="translate(0 -0.49)" style="fill:#00b2c3;opacity:0.30000001192092896;isolation:isolate"/><path d="M529.07,513.17,702.55,322.45,876,513.17Z" transform="translate(0 -0.49)" style="fill:#106ebe"/><path d="M702.73,322.28l52.58,190.41,121.15.3Z" transform="translate(0 -0.49)" style="fill:#005a9e"/><path d="M703.07,322.45l80.24,88.42-47.58-7.64-2.12,27.84-30.54-36.9L655.42,438l9.33-47.32-36.27,13.24Z" transform="translate(0 -0.49)" style="fill:#00b2c3;opacity:0.30000001192092896;isolation:isolate"/><path d="M.06,506.64H378.89L144.73,292.41.06,424.77Z" transform="translate(0 -0.49)" style="fill:#106ebe"/><path d="M.06,424.59v50.08l69.64.6L144,292.41Z" transform="translate(0 -0.49)" style="fill:#005a9e"/><path d="M144,292.41,35.71,391.73,100,383.15l2.84,31.27L144,373l64.3,49.24-12.59-53.16,48.95,14.88Z" transform="translate(0 -0.49)" style="fill:#00b2c3;opacity:0.30000001192092896;isolation:isolate"/><path d="M448.89,514,295.21,345.07,141.53,514Z" transform="translate(0 -0.49)" style="fill:#106ebe"/><path d="M294.76,345.07,248.18,513.76l-93-15.78Z" transform="translate(0 -0.49)" style="fill:#005a9e"/><path d="M294.76,345.07l-71.09,78.32,42.17-6.75,1.85,24.65,27.07-32.69L337,447.43l-8.27-41.93,32.13,11.73Z" transform="translate(0 -0.49)" style="fill:#00b2c3;opacity:0.30000001192092896;isolation:isolate"/><path d="M976.7,694V554.74a341.36,341.36,0,0,0-83-10.29c-77.39,0-150.55,26.39-215.3,72.84a194.44,194.44,0,0,0-53.56-7.56c-63.36,0-121.7,32.75-168,84.28Z" transform="translate(0 -0.49)" style="fill:#3c9"/><rect x="0.85" y="509.6" width="976.64" height="9.22" style="fill:#005a9e"/><path d="M327.11,472.79c-20.81,1.77-40.66,7.88-58.28,21.82-14-9.92-29.52-15.47-45.81-15.47A74.32,74.32,0,0,0,192.21,486c-33.08-29.83-71.11-47-111.64-47C52.22,439,25.06,447.37,0,462.59V519.3l440.47.49C417.92,490.83,370.12,469.14,327.11,472.79Z" transform="translate(0 -0.49)" style="fill:#3c9"/></g></g></svg>