<svg width="342" height="278" viewBox="0 0 342 278" fill="none" xmlns="http://www.w3.org/2000/svg">
<path opacity="0.2" d="M44.0271 275.485C-15.8606 293.125 -7.7251 215.044 27.315 133.116C44.8144 92.2026 -10.6726 33.0006 37.1777 10.9146C100.543 -18.3334 109.902 21.9897 176.272 8.46059C231.945 -2.89013 276.778 -3.80943 288.584 28.0926C300.271 59.6776 307.415 119.916 319.273 168.964C326.042 196.96 284.027 247.013 255.995 262.454C193.755 296.75 154.459 242.956 44.0271 275.485Z" fill="#FCE39C"/>
<path opacity="0.2" d="M234.65 36.6635C234.766 35.9635 234.862 35.2635 234.979 34.5635C234.862 35.2635 234.755 35.9635 234.64 36.6635H234.65Z" fill="#B4D7F9"/>
<path d="M236.75 36.875C242.65 44.5505 248.637 52.2266 254.712 59.9033C249.184 98.9183 245.92 138.221 244.939 177.613C244.931 178.167 244.807 178.713 244.574 179.215C244.341 179.718 244.005 180.165 243.587 180.529C243.169 180.892 242.679 181.163 242.15 181.324C241.62 181.485 241.062 181.533 240.513 181.464C218.011 179.266 195.528 177.066 173.062 174.866C173.062 175.578 173.08 176.289 173.084 177.001C196.205 179.264 219.333 181.526 242.468 183.787C243.017 183.856 243.574 183.809 244.104 183.648C244.634 183.486 245.123 183.215 245.541 182.852C245.959 182.489 246.295 182.041 246.528 181.539C246.761 181.037 246.886 180.491 246.893 179.938C247.668 148.438 249.943 116.846 253.718 85.1627C254.625 77.517 255.591 69.873 256.672 62.229C253.561 58.302 250.475 54.3756 247.415 50.4497C243.889 45.9312 240.393 41.4133 236.927 36.896L236.75 36.875Z" fill="#E1DFDD"/>
<path d="M234.633 36.6611C234.517 37.3611 234.419 38.0611 234.306 38.7611C234.419 38.0611 234.528 37.3611 234.643 36.6611H234.633Z" fill="#E1DFDD"/>
<path d="M163.206 85.5792C164.311 86.1115 165.268 86.9064 165.994 87.8942C166.72 88.8821 167.193 90.0328 167.371 91.2457C167.506 92.2782 167.609 93.3125 167.739 94.345C192.16 96.6176 216.591 98.8897 241.03 101.161C240.889 102.53 240.751 103.899 240.616 105.27C216.473 103.029 192.347 100.786 168.237 98.5415C168.698 102.419 169.129 106.296 169.531 110.172C192.864 112.338 216.205 114.504 239.553 116.668C239.437 118.038 239.32 119.407 239.203 120.775C216.103 118.634 193.014 116.494 169.937 114.353C170.303 118.177 170.64 122 170.946 125.82C193.39 128.002 215.841 130.183 238.302 132.364C238.203 133.732 238.107 135.1 238.015 136.467C215.747 134.31 193.495 132.152 171.258 129.992C171.565 134.192 171.832 138.387 172.061 142.577C193.423 144.55 214.791 146.521 236.165 148.492C236.088 149.858 236.014 151.224 235.943 152.59C214.71 150.636 193.489 148.68 172.282 146.721C172.74 156.118 173.003 165.501 173.069 174.869C195.548 177.07 218.032 179.269 240.519 181.467C241.069 181.536 241.626 181.489 242.156 181.328C242.686 181.167 243.176 180.895 243.593 180.532C244.011 180.169 244.348 179.721 244.58 179.219C244.813 178.716 244.938 178.171 244.945 177.617C245.927 138.224 249.19 98.9218 254.719 59.9067L233.665 57.8067C233.368 57.7785 233.08 57.6897 232.819 57.5457C232.559 57.4017 232.33 57.2056 232.148 56.9697C231.966 56.7337 231.835 56.4629 231.762 56.174C231.689 55.8851 231.676 55.5843 231.724 55.2902C232.531 49.7812 233.406 44.2652 234.307 38.7632C234.421 38.0632 234.519 37.3632 234.634 36.6632C234.75 35.9632 234.856 35.2632 234.974 34.5632C213.947 32.4632 192.93 30.3603 171.923 28.2545L154.813 26.55C153.649 26.4605 152.493 26.8065 151.57 27.5207C150.646 28.235 150.021 29.2666 149.815 30.4157C149.532 32.0491 149.252 33.6777 148.977 35.3017C146.284 51.2746 143.974 67.2515 142.047 83.2325L157.373 82.767C158.496 82.7571 159.606 83.0057 160.618 83.4933C161.629 83.9809 162.515 84.6946 163.206 85.5792ZM194.389 77.2352L239.06 81.22C238.892 82.5897 238.726 83.9593 238.563 85.329L193.875 81.346C194.044 79.974 194.216 78.6037 194.389 77.2352ZM157.825 74.5945C158.705 67.78 159.654 60.9655 160.674 54.151C160.825 53.1753 161.34 52.2931 162.115 51.6822C162.891 51.0713 163.869 50.7772 164.853 50.8592L185.207 52.891C185.68 52.9373 186.139 53.0803 186.555 53.3113C186.971 53.5422 187.335 53.8561 187.624 54.2335C187.914 54.6109 188.122 55.0438 188.238 55.5052C188.353 55.9666 188.372 56.4468 188.294 56.916C187.3 63.7293 186.374 70.5432 185.517 77.3577C185.393 78.3299 184.897 79.2162 184.134 79.8304C183.37 80.4446 182.398 80.7388 181.422 80.6512L160.999 78.6107C160.523 78.5655 160.061 78.4243 159.641 78.1956C159.221 77.967 158.851 77.6556 158.555 77.2804C158.258 76.9051 158.04 76.4737 157.915 76.0121C157.79 75.5505 157.759 75.0683 157.825 74.5945V74.5945Z" fill="white"/>
<path d="M234.3 38.7561C233.399 44.2651 232.524 49.7811 231.717 55.2831C231.669 55.5772 231.682 55.878 231.755 56.1669C231.828 56.4558 231.959 56.7266 232.141 56.9626C232.323 57.1985 232.552 57.3946 232.813 57.5386C233.073 57.6825 233.361 57.7714 233.658 57.7996L254.712 59.8996C248.632 52.2241 242.645 44.5492 236.75 36.8749C236.158 36.1066 235.556 35.3366 234.967 34.5684C234.849 35.2684 234.753 35.9684 234.638 36.6684C234.522 37.3684 234.419 38.0596 234.3 38.7561Z" fill="#C6C4C2"/>
<path d="M161 78.6107L181.424 80.6442C182.4 80.7317 183.372 80.4375 184.136 79.8233C184.899 79.2091 185.395 78.3228 185.519 77.3507C186.375 70.5374 187.301 63.7234 188.296 56.9089C188.374 56.4398 188.355 55.9596 188.24 55.4981C188.124 55.0367 187.916 54.6039 187.626 54.2265C187.337 53.8491 186.973 53.5352 186.557 53.3042C186.141 53.0733 185.682 52.9302 185.209 52.8839L164.855 50.8592C163.871 50.7772 162.893 51.0713 162.117 51.6822C161.342 52.2931 160.827 53.1753 160.676 54.1509C159.657 60.9643 158.708 67.7788 157.827 74.5944C157.761 75.0681 157.791 75.5502 157.917 76.0116C158.042 76.4731 158.26 76.9045 158.556 77.2797C158.852 77.655 159.222 77.9663 159.642 78.1951C160.062 78.4238 160.524 78.5652 161 78.6107V78.6107Z" fill="#C6C4C2"/>
<path d="M239.55 116.676C216.195 114.513 192.854 112.347 169.527 110.18C169.669 111.58 169.797 112.966 169.932 114.36C193.013 116.5 216.102 118.641 239.198 120.783C239.316 119.41 239.433 118.041 239.55 116.676Z" fill="#C6C4C2"/>
<path d="M241.03 101.161C216.585 98.8895 192.154 96.6174 167.738 94.3447C167.913 95.7447 168.071 97.1447 168.237 98.5447C192.352 100.788 216.478 103.031 240.615 105.273C240.752 103.903 240.89 102.532 241.03 101.161Z" fill="#C6C4C2"/>
<path d="M238.301 132.364C215.833 130.188 193.383 128.007 170.95 125.82C171.059 127.21 171.163 128.599 171.262 129.987C193.507 132.148 215.759 134.306 238.019 136.462C238.106 135.099 238.2 133.733 238.301 132.364Z" fill="white"/>
<path d="M233 147.847C206.65 131.907 180.317 115.958 154 100C154.095 111.169 154.19 122.352 154.272 133.521C180.417 149.357 206.569 165.183 232.726 181C232.815 169.958 232.907 158.907 233 147.847Z" fill="white"/>
<path d="M239.06 81.2201L194.389 77.2354C194.214 78.6039 194.039 79.9741 193.864 81.3461L238.554 85.3291C238.723 83.9606 238.892 82.5909 239.06 81.2201Z" fill="#C6C4C2"/>
<path d="M45.0305 218.791C44.1658 218.817 43.3049 218.667 42.5 218.35C43.0779 219.165 43.851 219.821 44.7485 220.258C45.6459 220.696 46.6389 220.901 47.6363 220.855C81.9083 219.892 116.15 218.923 150.361 217.948C150.374 217.229 150.433 216.511 150.536 215.799C115.388 216.8 80.2195 217.797 45.0305 218.791Z" fill="#E1DFDD"/>
<path d="M172.28 146.716C172.213 145.335 172.136 143.953 172.059 142.572C171.826 138.379 171.558 134.184 171.256 129.988C171.155 128.601 171.051 127.212 170.945 125.821C170.641 121.999 170.305 118.176 169.935 114.353C169.8 112.953 169.672 111.565 169.531 110.172C169.135 106.296 168.704 102.419 168.237 98.5419C168.071 97.1419 167.914 95.7419 167.739 94.3419C167.609 93.3094 167.506 92.2752 167.371 91.2427C167.193 90.0297 166.72 88.879 165.994 87.8912C165.268 86.9033 164.31 86.1085 163.206 85.5762C164.044 86.61 164.583 87.8538 164.764 89.1724C169.599 126.462 171.372 164.085 170.066 201.664C170.969 201.83 171.857 202.07 172.721 202.382C172.998 193.937 173.121 185.476 173.088 176.996C173.088 176.284 173.074 175.573 173.067 174.861C172.997 165.496 172.735 156.115 172.28 146.716Z" fill="#E1DFDD"/>
<path d="M150.522 215.806C151.127 211.442 153.432 207.494 156.936 204.824C120.897 205.944 84.8256 207.062 48.7231 208.177C48.7231 208.118 48.7231 208.06 48.7318 208.002C49.1856 199.782 49.4826 191.541 49.6226 183.28C50.1533 154.515 48.8803 125.744 45.8111 97.1382L155.827 93.5314C157.484 106.843 158.749 120.148 159.621 133.447C161.157 156.477 161.528 179.57 160.73 202.637C163.682 201.414 166.926 201.078 170.066 201.669C171.372 164.09 169.599 126.467 164.764 89.1774C164.506 87.3997 163.618 85.7739 162.261 84.5965C160.905 83.4191 159.17 82.7686 157.374 82.7637L142.047 83.2292L62.4116 85.6442L59.4051 85.7352L57.8021 85.7842L54.7956 85.8752L41.9068 86.2654C41.0645 86.2863 40.2362 86.4853 39.4764 86.8495C38.7166 87.2136 38.0425 87.7346 37.4986 88.378C36.9547 89.0215 36.5532 89.7729 36.3206 90.5827C36.0881 91.3925 36.0297 92.2424 36.1493 93.0764C40.5211 132.719 41.4217 172.667 38.8408 212.467C38.7349 213.711 39.034 214.956 39.6934 216.016C40.3529 217.076 41.3373 217.895 42.5001 218.35C43.3049 218.665 44.1652 218.812 45.0288 218.784C80.226 217.795 115.39 216.802 150.522 215.806Z" fill="white"/>
<path d="M101.962 182.379C116.837 169.535 124.712 152.279 136.117 142.055C127.133 142.332 118.15 142.606 109.167 142.879C106.883 142.938 104.618 142.448 102.563 141.451C100.507 140.454 98.7207 138.979 97.3525 137.15C95.5864 134.818 94.5451 132.019 94.3583 129.1C94.196 127.294 94.4002 125.473 94.9587 123.748C95.5173 122.023 96.4185 120.428 97.6084 119.06C98.7984 117.691 100.252 116.577 101.884 115.785C103.515 114.992 105.289 114.537 107.1 114.447C108.456 111.945 110.449 109.844 112.876 108.358C115.303 106.871 118.08 106.051 120.925 105.981C124.92 105.931 128.828 107.147 132.089 109.455C135.351 111.762 137.798 115.043 139.08 118.827C142.03 118.978 144.823 120.2 146.937 122.263C149.051 124.327 150.339 127.09 150.561 130.036C150.663 131.497 150.48 132.965 150.024 134.357C152.221 133.809 154.47 133.5 156.734 133.433C157.745 133.401 158.701 133.414 159.621 133.445C158.739 120.153 157.474 106.848 155.827 93.5293L45.8115 97.136C48.8807 125.742 50.1537 154.513 49.623 183.278C62.2965 174.792 71.4315 168.198 79.9785 167.934C88.0303 167.705 94.2218 174.425 101.962 182.379ZM67.0005 157.681C66.2501 157.699 65.5035 157.569 64.8035 157.298C64.1036 157.027 63.4642 156.62 62.922 156.101C62.3798 155.582 61.9455 154.961 61.6442 154.273C61.3428 153.586 61.1803 152.845 61.166 152.095C61.1247 150.57 61.6818 149.089 62.7183 147.97C63.2237 147.418 63.835 146.972 64.516 146.661C65.1969 146.349 65.9335 146.178 66.682 146.157L72.2505 145.987C73.079 144.439 74.301 143.137 75.7932 142.212C77.2855 141.287 78.9953 140.772 80.7503 140.718C83.4648 140.651 86.0958 141.66 88.0707 143.523C90.0457 145.387 91.2048 147.955 91.2958 150.669C91.2958 150.798 91.2958 150.912 91.2958 151.041C91.305 151.086 91.3097 151.132 91.3098 151.178C91.3254 151.636 91.2842 152.093 91.1873 152.541C90.924 153.8 90.2467 154.934 89.2633 155.762C88.2799 156.591 87.0473 157.066 85.7623 157.112L73.2515 157.49C71.1679 157.557 69.0842 157.62 67.0005 157.681Z" fill="#E1DFDD"/>
<path d="M101.961 182.379C94.2209 174.416 88.0294 167.705 79.9777 167.934C71.4307 168.199 62.3027 174.793 49.6222 183.278C49.4682 191.536 49.1713 199.777 48.7314 208.001C60.3462 204.334 85.0159 195.73 98.9564 184.85C99.9924 184.05 100.986 183.221 101.961 182.379Z" fill="#F2F2F2"/>
<path d="M101.961 182.379C94.2209 174.416 88.0294 167.705 79.9777 167.934C71.4307 168.199 62.3027 174.793 49.6222 183.278C49.4682 191.536 49.1713 199.777 48.7314 208.001C60.3462 204.334 85.0159 195.73 98.9564 184.85C99.9924 184.05 100.986 183.221 101.961 182.379Z" fill="url(#paint0_radial)"/>
<path d="M150.561 130.036C150.339 127.091 149.05 124.327 146.936 122.264C144.823 120.2 142.029 118.979 139.079 118.828C137.798 115.043 135.353 111.76 132.092 109.451C128.831 107.141 124.923 105.924 120.928 105.972C118.082 106.043 115.306 106.863 112.879 108.349C110.451 109.836 108.459 111.936 107.103 114.439C105.29 114.528 103.515 114.983 101.883 115.776C100.251 116.569 98.7959 117.684 97.6055 119.053C96.4151 120.423 95.5137 122.018 94.9556 123.745C94.3974 125.471 94.194 127.293 94.3575 129.1C94.5443 132.019 95.5856 134.819 97.3518 137.15C98.7187 138.98 100.504 140.456 102.559 141.454C104.613 142.452 106.877 142.943 109.161 142.887C118.144 142.615 127.127 142.34 136.111 142.062C140.035 138.38 144.815 135.734 150.018 134.362C150.477 132.969 150.661 131.5 150.561 130.036V130.036Z" fill="white"/>
<path d="M89.7499 155.299C90.4781 154.533 90.9754 153.577 91.1849 152.541C91.2819 152.093 91.323 151.635 91.3074 151.178C91.3074 151.132 91.3027 151.086 91.2934 151.041C91.2934 150.912 91.2934 150.798 91.2934 150.668C91.2024 147.955 90.0434 145.387 88.0684 143.523C86.0935 141.66 83.4625 140.651 80.7479 140.718C78.9933 140.772 77.2838 141.287 75.7919 142.212C74.2999 143.137 73.0782 144.439 72.2499 145.987L66.6832 146.162C65.9347 146.183 65.1981 146.355 64.5171 146.666C63.8362 146.977 63.2248 147.423 62.7194 147.975C61.683 149.095 61.1258 150.575 61.1672 152.1C61.1822 152.85 61.3451 153.589 61.6467 154.276C61.9482 154.963 62.3824 155.583 62.9243 156.102C63.4663 156.62 64.1053 157.027 64.8047 157.298C65.5041 157.569 66.2501 157.699 66.9999 157.681C69.0848 157.618 71.1696 157.554 73.2544 157.49L85.7652 157.112C86.5166 157.09 87.256 156.918 87.9402 156.607C88.6244 156.296 89.2397 155.851 89.7499 155.299Z" fill="white"/>
<path d="M159.621 133.446C158.7 133.414 157.745 133.402 156.733 133.433C154.47 133.5 152.221 133.81 150.024 134.357C144.824 135.728 140.048 138.372 136.125 142.05C124.722 152.277 116.844 169.525 101.971 182.374C100.996 183.216 100.002 184.045 98.9642 184.845C85.0255 195.725 60.3557 204.329 48.7392 207.996C48.7392 208.055 48.7392 208.113 48.7305 208.171C84.8365 207.055 120.907 205.938 156.943 204.818C158.107 203.925 159.382 203.188 160.737 202.628C161.532 179.563 161.16 156.473 159.621 133.446V133.446Z" fill="#C6C4C2"/>
<path d="M244.891 148.344C244.748 147.515 244.443 146.722 243.993 146.012C243.543 145.301 242.958 144.685 242.27 144.201C241.583 143.716 240.806 143.372 239.986 143.187C239.165 143.003 238.316 142.982 237.487 143.125L223.442 145.554C223.435 145.555 223.429 145.55 223.429 145.543V145.543C223.429 145.536 223.423 145.531 223.416 145.532L203.891 148.848C203.869 148.852 203.854 148.874 203.858 148.896V148.896C203.862 148.919 203.847 148.94 203.825 148.944L174.602 153.997C174.554 154.005 174.508 153.973 174.5 153.925V153.925C174.492 153.876 174.446 153.844 174.398 153.852L154.918 157.181C154.91 157.182 154.904 157.189 154.904 157.197V157.197C154.904 157.205 154.899 157.212 154.891 157.214L139.275 159.868C137.588 160.218 136.104 161.212 135.138 162.638C134.172 164.065 133.801 165.812 134.102 167.508L146.083 236.756L149.026 253.769C149.313 255.423 150.244 256.895 151.615 257.862C152.987 258.829 154.686 259.212 156.339 258.926L180.153 254.81L230.359 246.123L252.715 242.323C257.031 241.59 259.956 237.524 259.278 233.199L256.469 215.259L244.891 148.344ZM206.769 208.777C206.569 208.929 206.415 209.133 206.323 209.366C206.23 209.6 206.203 209.854 206.244 210.101L207.656 218.263C207.842 219.336 207.789 220.436 207.503 221.485C207.217 222.535 206.703 223.509 205.999 224.339C205.295 225.169 204.418 225.834 203.429 226.288C202.44 226.741 201.363 226.972 200.275 226.964C199.909 226.964 199.543 226.939 199.179 226.891C197.612 226.628 196.168 225.876 195.053 224.743C193.939 223.609 193.212 222.152 192.976 220.58L191.602 212.637C191.555 212.389 191.443 212.159 191.276 211.97C191.11 211.781 190.895 211.64 190.655 211.563C187.574 210.546 184.841 208.683 182.768 206.188C180.695 203.692 179.365 200.664 178.93 197.449C178.518 193.084 179.703 188.717 182.264 185.159C184.825 181.6 188.59 179.091 192.86 178.096C196.68 177.364 200.635 177.939 204.088 179.728C207.542 181.517 210.293 184.416 211.899 187.958C213.505 191.5 213.872 195.48 212.941 199.256C212.011 203.033 209.837 206.386 206.769 208.777Z" fill="#FFCB7E"/>
<path d="M206.413 109.723C201.445 106.04 195.574 103.768 189.42 103.149C188.395 103.051 187.361 103.001 186.318 103C185.409 103 184.496 103.045 183.579 103.124C183.273 103.149 182.966 103.198 182.66 103.233C181.95 103.313 181.239 103.392 180.527 103.52H180.485C163.989 106.521 152.462 121.58 152.287 138.798C152.262 141.308 152.475 143.814 152.926 146.283L154.905 157.183L174.481 153.858L172.465 142.742C172.18 141.168 172.121 139.561 172.29 137.97C172.64 134.452 174.151 131.15 176.584 128.585C177.601 127.523 178.773 126.623 180.061 125.914C181.38 125.192 182.807 124.688 184.286 124.42C187.23 123.89 190.267 124.308 192.959 125.613C195.258 126.747 197.256 128.409 198.789 130.462C200.323 132.516 201.348 134.903 201.782 137.429L203.854 148.864L223.433 145.539L221.321 133.887C219.625 124.223 214.29 115.575 206.413 109.723V109.723Z" fill="#FFE3B9"/>
<path d="M244.891 148.344C244.748 147.515 244.443 146.722 243.993 146.012C243.543 145.301 242.958 144.685 242.27 144.201C241.583 143.716 240.806 143.372 239.986 143.187C239.165 143.003 238.316 142.982 237.487 143.125L223.429 145.556V145.53L203.85 148.855L203.866 148.937L174.515 154.012L174.485 153.837L154.904 157.183V157.211L139.275 159.868C137.588 160.218 136.104 161.212 135.138 162.638C134.172 164.065 133.801 165.812 134.102 167.508L146.083 236.756L149.026 253.769C149.313 255.423 150.244 256.895 151.615 257.862C152.987 258.829 154.686 259.212 156.339 258.926L180.153 254.81L230.359 246.123L256.469 215.259L244.891 148.344ZM206.769 208.777C206.569 208.929 206.415 209.133 206.323 209.366C206.23 209.6 206.203 209.854 206.244 210.101L207.656 218.263C207.842 219.336 207.789 220.436 207.503 221.485C207.217 222.535 206.703 223.509 205.999 224.339C205.295 225.169 204.418 225.834 203.429 226.288C202.44 226.741 201.363 226.972 200.275 226.964C199.909 226.964 199.543 226.939 199.179 226.891C197.612 226.628 196.168 225.876 195.053 224.743C193.939 223.609 193.212 222.152 192.976 220.58L191.602 212.637C191.555 212.389 191.443 212.159 191.276 211.97C191.11 211.781 190.895 211.64 190.655 211.563C187.574 210.546 184.841 208.683 182.768 206.188C180.695 203.692 179.365 200.664 178.93 197.449C178.518 193.084 179.703 188.717 182.264 185.159C184.825 181.6 188.59 179.091 192.86 178.096C196.68 177.364 200.635 177.939 204.088 179.728C207.542 181.517 210.293 184.416 211.899 187.958C213.505 191.5 213.872 195.48 212.941 199.256C212.011 203.033 209.837 206.386 206.769 208.777V208.777Z" fill="#74ADEE"/>
<path d="M206.412 109.723C201.444 106.04 195.573 103.768 189.419 103.149C188.394 103.051 187.36 103.001 186.317 103C185.408 103 184.495 103.045 183.578 103.124C183.272 103.149 182.965 103.198 182.659 103.233C181.949 103.313 181.238 103.392 180.526 103.52H180.484C163.988 106.521 152.461 121.58 152.286 138.798C152.261 141.308 152.474 143.814 152.925 146.283L154.904 157.183L174.48 153.858L172.464 142.742C172.179 141.168 172.12 139.561 172.289 137.97C172.639 134.452 174.15 131.15 176.583 128.585C177.6 127.523 178.772 126.623 180.06 125.914C181.379 125.192 182.806 124.688 184.285 124.42C187.229 123.89 190.266 124.308 192.958 125.613C195.257 126.747 197.255 128.409 198.788 130.462C200.322 132.516 201.347 134.903 201.781 137.429L203.853 148.864L223.432 145.539L221.32 133.887C219.624 124.223 214.289 115.575 206.412 109.723V109.723Z" fill="#328AD5"/>
<path d="M278.957 212.134L278.936 212.114C277.73 211.069 276.59 209.95 275.523 208.763V208.763L227.085 265.479L226.292 258.631L272.153 204.434C271.177 202.951 270.307 201.402 269.549 199.798L256.469 215.257L230.359 246.122L220.969 257.221L223.329 277.696L223.513 277.624L278.957 212.134Z" fill="#FED494"/>
<path d="M272.152 204.433L226.292 258.63L227.085 265.478L275.528 208.767C274.653 207.802 273.832 206.789 273.069 205.733C272.746 205.308 272.452 204.874 272.152 204.433Z" fill="#F5B453"/>
<path d="M272.153 204.433C272.452 204.87 272.746 205.308 273.064 205.729C273.827 206.786 274.648 207.799 275.523 208.764V208.764C276.59 209.951 277.73 211.07 278.936 212.115L278.957 212.134L304.167 182.355C304.199 182.383 304.235 182.404 304.267 182.43C302.264 180.657 301.037 178.169 300.849 175.501C300.66 172.832 301.526 170.197 303.26 168.16C304.993 166.123 307.457 164.847 310.121 164.606C312.785 164.365 315.437 165.179 317.507 166.872L317.359 166.746L327.824 154.383L327.241 153.889C326.233 153.084 325.184 152.33 324.1 151.632L323.186 150.981C321.316 149.855 319.35 148.897 317.311 148.118C316.982 147.986 316.641 147.857 316.295 147.747C308.807 145.144 300.692 144.952 293.09 147.198C285.487 149.445 278.78 154.016 273.909 160.271C269.039 166.525 266.25 174.148 265.934 182.069C265.619 189.99 267.793 197.811 272.151 204.433H272.153Z" fill="#FED494"/>
<path d="M327.885 154.317L327.824 154.387L317.359 166.75L317.507 166.876L317.663 167.008C319.736 168.764 321.026 171.272 321.252 173.98C321.477 176.687 320.618 179.374 318.864 181.449C317.628 182.789 316.065 183.787 314.329 184.344C312.593 184.902 310.742 185 308.957 184.63C307.713 184.43 306.522 183.979 305.457 183.305C305.282 183.193 305.107 183.073 304.932 182.955C304.706 182.791 304.48 182.626 304.27 182.441C304.239 182.415 304.202 182.394 304.171 182.366L278.957 212.133L223.511 277.627L223.459 277.688L241.148 276.834C242.312 276.774 243.419 276.315 244.285 275.536C245.152 274.756 245.724 273.703 245.906 272.552L247.114 264.957L255.22 262.229C256.144 261.918 256.959 261.348 257.568 260.587C258.178 259.827 258.556 258.907 258.658 257.938L259.596 249.03L268.25 246.594C269.189 246.332 270.033 245.806 270.681 245.078C271.33 244.35 271.755 243.451 271.908 242.489L273.248 234.045L284.448 230.279L293.247 219.886C294.108 220.132 294.971 220.342 295.837 220.526L296.119 220.586C296.915 220.747 297.712 220.883 298.511 220.993L298.961 221.051C299.745 221.149 300.527 221.226 301.311 221.277L301.519 221.293C305.678 221.503 309.844 221.048 313.859 219.943C313.995 219.905 314.133 219.872 314.27 219.833C315.619 219.439 316.946 218.972 318.244 218.433C318.648 218.258 319.053 218.094 319.452 217.908C324.641 215.542 329.229 212.034 332.871 207.644C333.815 206.494 334.691 205.291 335.496 204.039C339.657 197.602 341.767 190.054 341.547 182.392C341.326 174.73 338.786 167.315 334.262 161.128C334.146 160.968 334.036 160.807 333.912 160.652C333.513 160.127 333.105 159.602 332.676 159.096C332.183 158.511 331.679 157.936 331.145 157.377C330.611 156.819 330.001 156.245 329.395 155.694C328.888 155.225 328.406 154.737 327.867 154.294L327.885 154.317Z" fill="#F5B453"/>
<defs>
<radialGradient id="paint0_radial" cx="0" cy="0" r="1" gradientUnits="userSpaceOnUse" gradientTransform="translate(85.638 220.448) rotate(-1.71836) scale(54.1536 54.5864)">
<stop offset="0.338" stop-color="#797673"/>
<stop offset="0.513" stop-color="#979592"/>
<stop offset="0.701" stop-color="#B1AFAC"/>
<stop offset="0.869" stop-color="#C1BEBC"/>
<stop offset="1" stop-color="#C6C4C2"/>
</radialGradient>
</defs>
</svg>
