<svg xmlns="http://www.w3.org/2000/svg" xmlns:xlink="http://www.w3.org/1999/xlink" viewBox="0 0 470 220"><defs><radialGradient id="radial-gradient" cx="-2390.234" cy="465.012" r="12.169" gradientTransform="matrix(0.977, -0.212, 0.205, 0.95, 2471.52, -842.34)" gradientUnits="userSpaceOnUse"><stop offset="0" stop-color="#603813" stop-opacity="0.85"/><stop offset="1" stop-color="#8a5d3b" stop-opacity="0"/></radialGradient><radialGradient id="radial-gradient-2" cx="-2389.659" cy="461.408" r="8.628" gradientTransform="matrix(0.979, -0.202, 0.2, 0.971, 2475.069, -839.22)" gradientUnits="userSpaceOnUse"><stop offset="0" stop-color="#9a6541" stop-opacity="0.847"/><stop offset="1" stop-color="#8a5d3b" stop-opacity="0"/></radialGradient><radialGradient id="radial-gradient-3" cx="-1866.244" cy="304.624" r="19.924" gradientTransform="matrix(-0.979, 0.202, -0.213, -1.035, -1530.875, 739.824)" gradientUnits="userSpaceOnUse"><stop offset="0" stop-color="#606060"/><stop offset="1" stop-color="#e1dfdd" stop-opacity="0"/></radialGradient><radialGradient id="radial-gradient-4" cx="224.035" cy="166.217" r="22.959" gradientTransform="translate(53.057 -109.89) rotate(11.85) scale(1 1.414)" gradientUnits="userSpaceOnUse"><stop offset="0" stop-color="#1e939e"/><stop offset="0.418" stop-color="#25b5c3"/><stop offset="0.562" stop-color="#28c2d1"/></radialGradient></defs><title>FRE-OneDrive-page8</title><g id="IMG_7" data-name="IMG 7"><path d="M106.707,8.43s3.506-2.148,10.464.531l1.884-6.072a17.9,17.9,0,0,0-12.049-1.544Z" style="fill:#106ebe"/><path d="M438.226,107.165s3.506-2.148,10.465.532l1.884-6.073a17.9,17.9,0,0,0-12.05-1.543Z" style="fill:#106ebe"/><path d="M26.7,25.27l.876,7.1a.725.725,0,0,0,.874.619l4.821-1.055a.723.723,0,0,0,.565-.79l-.9-7.839a.724.724,0,0,0-.973-.6l-4.8,1.793A.725.725,0,0,0,26.7,25.27Z" style="fill:#f7b547"/><path d="M329.28,210.305l.876,7.1a.725.725,0,0,0,.874.619l4.821-1.055a.724.724,0,0,0,.565-.79l-.9-7.839a.724.724,0,0,0-.973-.6l-4.8,1.793A.725.725,0,0,0,329.28,210.305Z" style="fill:#f7b547"/><path d="M402.854,3.558l.876,7.1a.724.724,0,0,0,.874.619l4.821-1.054a.725.725,0,0,0,.565-.791l-.9-7.838a.724.724,0,0,0-.973-.6l-4.8,1.793A.724.724,0,0,0,402.854,3.558Z" style="fill:#ef8f95"/><path d="M36.2,198.767l.877,7.1a.724.724,0,0,0,.873.619l4.822-1.055a.725.725,0,0,0,.565-.79l-.9-7.839a.724.724,0,0,0-.973-.6L36.663,198A.726.726,0,0,0,36.2,198.767Z" style="fill:#ef8f95"/><path d="M423.278,185.661l.876,7.1a.725.725,0,0,0,.874.619l4.821-1.055a.722.722,0,0,0,.565-.79l-.9-7.839a.725.725,0,0,0-.973-.6l-4.8,1.794A.723.723,0,0,0,423.278,185.661Z" style="fill:#ef8f95"/><path d="M33.24,130.379s1.91-5.86,12.453-9.572l-3.757-8.759a26.836,26.836,0,0,0-15.246,9.959Z" style="fill:#c7e0f4"/><path d="M356.932,98.776s6.158.269,12.559,9.432l7.432-5.967a26.829,26.829,0,0,0-13.681-12.019Z" style="fill:#ffd590"/><path d="M131.964,206.5s-.89,4.014-7.65,7.159l3.06,5.573a17.9,17.9,0,0,0,9.479-7.6Z" style="fill:#2b88d8"/><path d="M105.74,95.956l.876,7.1a.725.725,0,0,0,.874.619l4.821-1.055a.724.724,0,0,0,.565-.79l-.9-7.839a.724.724,0,0,0-.973-.6l-4.8,1.793A.725.725,0,0,0,105.74,95.956Z" style="fill:#ef8f95"/><circle cx="235" cy="117.838" r="85.665" style="fill:#3cc1f4;opacity:0.7000000000000001"/><path d="M313.881,147.392q-2.772-6.747-11.259-11.972-9.891-6.04-12.093-8.969-3.213-4.309-3.263-12.654a23.145,23.145,0,0,0-4.174-14.261q-4.168-5.771-13.289-9.483-7.952-3.332-9.439-7.375-1.873-5.208-3.465-10.817l-1.248-4.645a21.111,21.111,0,0,0-10.059-12.5q-8.99-5.19-25.1-1.592-14.13,1.945-20.991,10.955a21.266,21.266,0,0,0-4.619,15.659l.691,4.76q.756,5.783,1.095,11.306.233,4.3-5.754,10.507-6.909,7.017-8.455,13.965a23.146,23.146,0,0,0,1.8,14.749q3.255,7.684,2.008,12.912-.865,3.563-7.561,13.021-5.73,8.154-5.607,15.449c.006.218.023.435.04.653a85.632,85.632,0,0,0,141.4-27.412A12.239,12.239,0,0,0,313.881,147.392Z" style="fill:#f9f9f8"/><g id="Layer1_2_FILL" data-name="Layer1 2 FILL"><path d="M295.432,30.738l5.83-.08s4.431-9.97,5.216-13.433a71.519,71.519,0,0,0,.8-8.915,10.707,10.707,0,0,0-.383-3.545,3.166,3.166,0,0,0-2.394-1.48q-.273-.867-.642-2.234a4.248,4.248,0,0,0-.856-1.411q-1.488-.625-1.847,1.027s-2.347,12.081-3.453,12.609-2.187-6.335-2.665-7.268q-.735-1.189-1.463-.9-.8.349-.721,1.761c.168,4.856-1.583,8.5-1.323,10.835S295.432,30.738,295.432,30.738Z" style="fill:#bf8f68"/></g><g id="Layer0_15_FILL" data-name="Layer0 15 FILL"><path d="M256.605,74.315A33.014,33.014,0,0,1,251.912,94.9a31.385,31.385,0,0,1-8.181,8.951,29.3,29.3,0,0,1-11.261,4.937l-.488.1a28.743,28.743,0,0,1-21.837-4.072,32.99,32.99,0,0,1-14.021-18.325,32.34,32.34,0,0,1-.985-3.721,29.819,29.819,0,0,1-.165-11.372,28.376,28.376,0,0,1,3.737-10.07,26.2,26.2,0,0,1,6.878-7.521,24.4,24.4,0,0,1,9.965-4.524l8.433-1.739a25.659,25.659,0,0,1,11.236.227,26.69,26.69,0,0,1,13.248,7.877,29.617,29.617,0,0,1,7.51,14.581A38.624,38.624,0,0,1,256.605,74.315Z" style="fill:#f9f9f8"/></g><g id="Layer1_23_FILL" data-name="Layer1 23 FILL"><path d="M208.651,86.306l-1.452.3a4.962,4.962,0,0,0-3.251,2.233A5.2,5.2,0,0,0,205.472,96a4.94,4.94,0,0,0,3.86.718l1.405-.289Z" style="fill:#b5855e"/></g><g id="Layer0_16_FILL" data-name="Layer0 16 FILL"><path d="M235.9,124.355a25.487,25.487,0,0,1-6.51.761,24.224,24.224,0,0,1-5.608-.772,7.066,7.066,0,0,0,1.463-1.374,8.253,8.253,0,0,0,1.62-4.539,16.517,16.517,0,0,0-1.747-8.675l-1.212-10.1,13.422-2.912,1.938,9.209a14.428,14.428,0,0,0,1.175,8.983A8.42,8.42,0,0,0,244.232,119a6.859,6.859,0,0,0,1.615.517A27.224,27.224,0,0,1,235.9,124.355Z" style="fill:#b5855e"/></g><g id="Layer0_17_FILL" data-name="Layer0 17 FILL"><path d="M235.134,122.769q-9.325,2-10.446,1.136a12.138,12.138,0,0,0,2.175-5.043,12.919,12.919,0,0,0-2.082-9.24l-.57-9.885,12.883-2q.953,4.578,1.9,9.156a14.524,14.524,0,0,0,1.816,8.739,14.091,14.091,0,0,0,3.736,4.181Q244.472,120.845,235.134,122.769Z" style="fill:url(#radial-gradient)"/></g><g id="Layer0_18_FILL" data-name="Layer0 18 FILL"><path d="M222.419,60.728a19.356,19.356,0,0,1,22.87,14.93L248,88.791a18.284,18.284,0,0,1-2.873,14.432,18.558,18.558,0,0,1-12.228,8.325l-.072.014a18.8,18.8,0,0,1-14.6-2.8,18.4,18.4,0,0,1-8.274-12.135L207.246,83.5a18.643,18.643,0,0,1,2.786-14.489,18.929,18.929,0,0,1,12.315-8.268Z" style="fill:#b5855e"/></g><g id="Layer0_21_FILL" data-name="Layer0 21 FILL"><path d="M229.887,101.545l-13.311,2.744-4.971-24.114,13.312-2.743Z" style="fill:url(#radial-gradient-2)"/></g><g id="Layer0_24_FILL" data-name="Layer0 24 FILL"><path d="M228.666,95.622q-.043-.21-1.246-.761a7.48,7.48,0,0,1-1.919-1.2,3.308,3.308,0,0,1-1.184-1.864,2.755,2.755,0,0,1,.518-2.068,8.236,8.236,0,0,0,1.525-4.238l-.165-1.855a17.405,17.405,0,0,1,2.405,7.787A25.678,25.678,0,0,1,228.666,95.622Z" style="fill:#b5855e"/></g><g id="Layer0_25_FILL" data-name="Layer0 25 FILL"><path d="M241.737,56.818q12.021,17.43,12.111,18.573a14.367,14.367,0,0,1-6.29,2.968,14.486,14.486,0,0,1-17.031-10.366l-12.4,2.557a13.857,13.857,0,0,1-2.437,10.383,14.211,14.211,0,0,1-9.037,5.859,14.366,14.366,0,0,1-7.412-.361q-.2-.613,2.25-11.29L203.964,64.6Z" style="fill:#f9f9f8"/></g><g id="Layer0_26_FILL" data-name="Layer0 26 FILL"><path d="M223.978,67.236l-10.454,2.155L209.63,50.5l10.454-2.155Z" style="fill:url(#radial-gradient-3)"/></g><g id="Layer0_27_FILL" data-name="Layer0 27 FILL"><path d="M224.353,69.411a3.312,3.312,0,0,1,.615-2.307,2.925,2.925,0,0,1,4.181-.862,3.1,3.1,0,0,1,1.407,1.89Z" style="fill:#e1dfdd"/></g><g id="Layer0_28_FILL" data-name="Layer0 28 FILL"><path d="M218.15,70.689a3.311,3.311,0,0,1,.615-2.306,2.925,2.925,0,0,1,4.181-.862,3.1,3.1,0,0,1,1.407,1.89Z" style="fill:#e1dfdd"/></g><g id="Layer1_23_FILL-2" data-name="Layer1 23 FILL"><path d="M245.42,78.849l1.452-.3a4.97,4.97,0,0,1,3.87.765,5.2,5.2,0,0,1,1.43,7.178,4.94,4.94,0,0,1-3.261,2.186l-1.405.29Z" style="fill:#b5855e"/></g><path d="M298.237,85.59c-11.611,18.444-43.928,31.887-43.928,31.887-5.821,2.986-7.155,12.178-2.945,17.3,4.013,4.884,10.434,8.646,16.236,5.952,0,0,37.925-16.188,48.419-47.057,4.76-14-4.109-50.091-13.465-65.495l-7.372,1.453S307.5,70.875,298.237,85.59Z" style="fill:#bf8f68"/><path d="M286.349,98.3a121.8,121.8,0,0,1-14.43,10.153,144.925,144.925,0,0,1-17.61,9.028c-5.821,2.985-7.155,12.177-2.945,17.3,4.013,4.882,10.434,8.645,16.236,5.951a134.574,134.574,0,0,0,20.274-11.953c5.574-3.984,10.486-7.539,15.839-13.588A64.573,64.573,0,0,0,315.9,95.06c1.28-3.616,1.521-6.019,2-10.826.287-2.847.283-4.712-.8-6.484a8.01,8.01,0,0,0-3.959-3.153c-7.333-4.458-10.248-4.405-11.5-3.35-.246.208-.367.523-.832,3.125-.654,3.661-.574,4.207-.9,5.76a21.526,21.526,0,0,1-2.832,6.945,25.141,25.141,0,0,1-3.045,3.9A70.572,70.572,0,0,1,286.349,98.3Z" style="fill:#28c2d1"/><path d="M223.951,130.357c-.958-.455-3.453.25-4.371-1.1-.355-.521-.207-.9-.5-1.154-.92-.8-4.441,1.375-7.524,4.01-9.429,8.058-14.524,20.2-21.228,35.167-.178.4-.636,1.386-1.152,2.743-.989,2.6-1.581,4.585-1.747,5.154-.609,2.09-1.951,6.128-3.5,11.438a85.485,85.485,0,0,0,20.125,11.1c4.954-8.308,7.728-12.852,9.689-15.4,4.757-6.182,10.46-16.853,14.494-36.541C231.882,141.053,229.415,132.95,223.951,130.357Z" style="fill:url(#radial-gradient-4)"/><path d="M275.379,182.806c-3.4-9.99-4.551-15.961-5.125-20.882a112.427,112.427,0,0,1-.665-14.048c.053-2.074.2-4.485.485-9.307.539-9.032.662-8.6.559-9.676-.647-6.784-4.613-14.38-8.813-14.545a4.16,4.16,0,0,0-2.4.7c-5.326,3.55-14.646,4.882-23.018,6.013-19.43,2.627-33.746,15.8-31.946,29.637a21.037,21.037,0,0,0,3.44,8.595,43.661,43.661,0,0,1,3.666,6.05,31.63,31.63,0,0,1,1.665,4.541,47.43,47.43,0,0,1,1.781,11.6A128.507,128.507,0,0,1,213.99,200.9a85.757,85.757,0,0,0,64.6-9.32C277.33,188.359,276.268,185.42,275.379,182.806Z" style="fill:#28c2d1"/><path d="M236.853,128.014c11.474-1.872,11.748-7.066,16.8-9.86-4.438.887-10.633,1.843-17.274,2.707a44.641,44.641,0,0,0-18.027,6.362A47.322,47.322,0,0,0,236.853,128.014Z" style="fill:#b5855e"/><g style="opacity:0.699999988079071"><path d="M216.616,88.775a3.631,3.631,0,0,1,5.218-3.2A2.793,2.793,0,0,1,223.3,87.46a.525.525,0,0,1-.405.624.518.518,0,0,1-.364-.054l-.165-.092a2.706,2.706,0,0,0-2.414-.358,5.433,5.433,0,0,0-2.281,1.548l-.094.083a.578.578,0,0,1-.961-.436Z" style="fill:#221f1f"/></g><g style="opacity:0.699999988079071"><path d="M231.549,85.847a3.63,3.63,0,0,1,5.217-3.2,2.788,2.788,0,0,1,1.466,1.887.525.525,0,0,1-.768.57l-.166-.092a2.706,2.706,0,0,0-2.414-.358A5.433,5.433,0,0,0,232.6,86.2l-.094.083a.578.578,0,0,1-.816-.052A.569.569,0,0,1,231.549,85.847Z" style="fill:#221f1f"/></g><path d="M226.283,101.98a18.337,18.337,0,0,0,4.515-.716,19.031,19.031,0,0,0,4.1-2l.033-.02a.579.579,0,0,1,.867.6,5.816,5.816,0,0,1-4.1,4.282,5.963,5.963,0,0,1-5.814-1.151.574.574,0,0,1,.357-.989Z" style="fill:#9a653d"/><circle cx="235" cy="117.991" r="85.665" style="fill:none"/><g id="Layer1_2_FILL-2" data-name="Layer1 2 FILL"><path d="M295.381,30.983l5.83-.081s4.432-9.97,5.217-13.432a71.731,71.731,0,0,0,.8-8.916,10.711,10.711,0,0,0-.383-3.545,3.16,3.16,0,0,0-2.394-1.479q-.273-.867-.641-2.235a4.3,4.3,0,0,0-.856-1.411q-1.49-.625-1.848,1.027s-2.347,12.082-3.453,12.609-2.187-6.335-2.665-7.267q-.735-1.19-1.463-.9-.8.348-.72,1.76c.168,4.856-1.584,8.5-1.324,10.835S295.381,30.983,295.381,30.983Z" style="fill:#bf8f68"/></g><path d="M298.187,85.835c-11.612,18.443-43.929,31.887-43.929,31.887-.236,1.878-.516,4.556-.656,7.788-.19,4.41-.285,6.614.258,8.141,1.96,5.512,10.969,6.967,13.689,7.324,0,0,37.925-16.188,48.419-47.057,4.76-14-4.109-50.091-13.465-65.495l-7.372,1.453S307.451,71.119,298.187,85.835Z" style="fill:#bf8f68"/><path d="M286.3,98.541a121.824,121.824,0,0,1-14.43,10.154,145.04,145.04,0,0,1-17.61,9.027c-5.487,2.353-4.867,11.6-2.945,17.3,2.273,6.735,8.845,12.412,15.262,12.229a12.447,12.447,0,0,0,4.555-1.139c8.374-3.357,14.2-8.668,18.2-12.477,8.235-7.83,12.352-11.745,15.119-15.56a95.851,95.851,0,0,0,11.4-22.773c.491-1.425.846-2.778.869-2.871a56.2,56.2,0,0,0,1.136-7.955c.287-2.846.283-4.712-.8-6.484a8.018,8.018,0,0,0-3.96-3.153c-7.333-4.458-10.248-4.4-11.5-3.35-.247.208-.368.523-.833,3.125-.654,3.661-.574,4.208-.9,5.761a21.533,21.533,0,0,1-2.831,6.944,25.154,25.154,0,0,1-3.045,3.9A70.582,70.582,0,0,1,286.3,98.541Z" style="fill:#28c2d1"/><path d="M66.323,149.381s3.039-.4,4.548,5.022c.623,2.234.856,5.344,2.891,6.435,2.787,1.493,10.1-2.539,10.1-2.539s-2.19-.248-3.066-4.6c-1.095-5.451-4.189-6.259-4.189-6.259Z" style="fill:#c3f2f4"/><path d="M75.5,153.134a7.157,7.157,0,0,1,1.932,3.328c.7,2.731,1.244,6.763,4.234,6.482,2.032-.191,9.709-2,9.709-2s-2.757-.433-3.457-5.1c-.54-3.6-2.477-4.562-2.477-4.562Z" style="fill:#c3f2f4"/><path d="M83.866,158.3a33.152,33.152,0,0,1-5.292,2.274,31.637,31.637,0,0,1-1.145-4.111,7.154,7.154,0,0,0-1.933-3.328l4.927-.918A14.255,14.255,0,0,1,80.8,153.7C81.676,158.051,83.866,158.3,83.866,158.3Z" style="fill:#7bddef"/><path d="M94.362,157.476,83.971,159.8a3.99,3.99,0,0,1-2.489,3.158c2.669.121,11.537-2.37,11.537-2.37A2.247,2.247,0,0,0,94.362,157.476Z" style="fill:#7bddef"/><path d="M367.332,29.779s-3.039-.4-4.548,5.022c-.622,2.234-.855,5.344-2.891,6.434-2.787,1.493-10.1-2.538-10.1-2.538s2.19-.249,3.065-4.605c1.095-5.45,4.189-6.258,4.189-6.258Z" style="fill:#c3f2f4"/><path d="M358.159,33.532a7.154,7.154,0,0,0-1.933,3.328c-.7,2.731-1.244,6.762-4.233,6.482-2.033-.191-9.71-2-9.71-2s2.758-.434,3.457-5.1c.541-3.6,2.477-4.563,2.477-4.563Z" style="fill:#c3f2f4"/><path d="M349.79,38.7a33.06,33.06,0,0,0,5.291,2.273,31.623,31.623,0,0,0,1.145-4.11,7.154,7.154,0,0,1,1.933-3.328l-4.926-.919a14.313,14.313,0,0,0-.378,1.479C351.98,38.448,349.79,38.7,349.79,38.7Z" style="fill:#7bddef"/><path d="M339.293,37.873,349.684,40.2a3.988,3.988,0,0,0,2.489,3.157c-2.669.121-11.537-2.369-11.537-2.369A2.248,2.248,0,0,1,339.293,37.873Z" style="fill:#7bddef"/><path d="M70.723,61.606c-.09.017-.654.136-.654.136l-.117-.622a3.275,3.275,0,0,0-3.9-2.485,3.332,3.332,0,0,0-2.784,3.086l-.062.01a3.175,3.175,0,1,0,1.17,6.23l7.286-1.368a2.542,2.542,0,1,0-.937-4.987Z" style="fill:#fff"/><path d="M66.05,58.635a3.275,3.275,0,0,1,3.9,2.485l.117.622s.564-.119.654-.136a2.542,2.542,0,1,1,.937,4.987l-7.286,1.368a3.175,3.175,0,1,1-1.17-6.23l.062-.01a3.332,3.332,0,0,1,2.784-3.086m-.195-1.178a4.84,4.84,0,0,0-2.713,1.516,4.408,4.408,0,0,0-.979,1.817,4.689,4.689,0,0,0-2.141,1.623,4.177,4.177,0,0,0,1.136,6.048,4.751,4.751,0,0,0,3.458.649L71.9,67.742a4.063,4.063,0,0,0,2.553-1.591,3.572,3.572,0,0,0-.971-5.167,4.013,4.013,0,0,0-2.4-.623,4.551,4.551,0,0,0-5.23-2.9Z" style="fill:#53ade5"/><path d="M427.338,39.874a6.726,6.726,0,1,1-7.561-5.773A6.726,6.726,0,0,1,427.338,39.874Z" style="fill:#6ecfc3"/><path d="M419.777,34.1a6.726,6.726,0,1,1-5.772,7.559,6.727,6.727,0,0,1,5.772-7.559m-.169-1.263a7.982,7.982,0,1,0,3.171.21,7.942,7.942,0,0,0-3.171-.21Z" style="fill:#6ecfc3"/><path d="M420.112,43.553a.5.5,0,0,1-.3-.1L417.1,41.408a.5.5,0,1,1,.6-.8l2.319,1.746,3.392-4.41a.5.5,0,1,1,.792.609l-3.693,4.8A.5.5,0,0,1,420.112,43.553Z" style="fill:#fff"/><path d="M381.313,167.306A6.725,6.725,0,1,1,378,158.389,6.725,6.725,0,0,1,381.313,167.306Z" style="fill:#fff"/><path d="M378,158.389a6.726,6.726,0,1,1-8.915,3.312A6.726,6.726,0,0,1,378,158.389m.531-1.158a7.987,7.987,0,1,0,2.569,1.87,7.933,7.933,0,0,0-2.569-1.87Z" style="fill:#6ecfc3"/><path d="M373.506,166.637a.5.5,0,0,1-.468-.322l-1.2-3.177a.5.5,0,1,1,.936-.356L373.8,165.5l5.222-1.92a.5.5,0,0,1,.346.94l-5.687,2.09A.525.525,0,0,1,373.506,166.637Z" style="fill:#6ecfc3"/></g></svg>