<?xml version="1.0" encoding="UTF-8"?>
<!-- Generator: Adobe Illustrator 23.0.2, SVG Export Plug-In . SVG Version: 6.00 Build 0)  -->
<svg width="48px" height="48px" style="enable-background:new 0 0 48 48" version="1.1" viewBox="0 0 48 48" xml:space="preserve" xmlns="http://www.w3.org/2000/svg" xmlns:cc="http://creativecommons.org/ns#" xmlns:dc="http://purl.org/dc/elements/1.1/" xmlns:rdf="http://www.w3.org/1999/02/22-rdf-syntax-ns#"><metadata><rdf:RDF><cc:Work rdf:about=""><dc:format>image/svg+xml</dc:format><dc:type rdf:resource="http://purl.org/dc/dcmitype/StillImage"/><dc:title/></cc:Work></rdf:RDF></metadata>
<style type="text/css">
	.st0{opacity:0.7;fill:#FFFFFF;}
	.st1{fill:#FFFFFF;}
	.st2{opacity:0.85;fill:#FFFFFF;}
	.st3{opacity:0.5;fill:#FFFFFF;}
	.st4{fill:none;}
</style>

<g transform="matrix(.77277 0 0 .77277 .19369 10.059)" style="fill:#ffffff;opacity:.7"><path class="st1" d="m12 39 26.654-0.02344c3.71-0.0033 7.0435-2.0534 8.7027-5.1996 0.74-1.37 1.2999-2.857 1.2999-4.527 0-5.16-4.2814-9.7281-9.3614-10.068-1.61-0.11-3.6664 0.27349-5.0464 0.87849-1.3535 0.69102-0.58887 3.7048 1.8095 3.2567 3.717-1.4862 7.8644 1.6284 8.5143 5.1914-0.18575 4.2805-4.4424 5.327-10.195 5.3177-18.216 0.06811-23.782-0.1392-32.374-0.07559 2.16 3.11 5.9156 5.253 9.9956 5.2494z" style="fill:#ffffff"/></g><path d="m30.19 7.5402c-0.13435 0.01969-0.26511 0.061549-0.39242 0.12982-1.4702 0.5653 0.69338 4.9539 0.56298 11.984l0.01212-0.01512a7.53 7.9699 86.292 0 0 0.0045 0.4528 7.53 7.9699 86.292 0 0 8.4416 7.0002 7.53 7.9699 86.292 0 0 7.4726-7.4319c0.32243-6.8195 2.6401-10.961 1.2271-11.596-1.9735-1.2028-5.3622 4.1408-6.8266 4.3031l0.0075 0.01056a7.53 7.9699 86.292 0 0-2.8556-0.31546 7.53 7.9699 86.292 0 0-1.5425 0.25356c-1.3642-0.23958-4.0985-5.0703-6.1112-4.7755z" style="fill:#ffffff;opacity:.5"/><path d="m41.782 16.131a1.1101 1.4798 86.292 0 0-0.14781 0.0042 1.1101 1.4798 86.292 0 0-1.4032 1.2033 1.1101 1.4798 86.292 0 0 1.5468 1.0118 1.1101 1.4798 86.292 0 0 1.4053-1.2033 1.1101 1.4798 86.292 0 0-1.4011-1.016zm-0.17488 0.51214a0.64174 0.48678 86.292 0 1 0.52672 0.60791 0.64174 0.48678 86.292 0 1-0.44552 0.67245 0.64174 0.48678 86.292 0 1-0.52672-0.60999 0.64174 0.48678 86.292 0 1 0.44552-0.67036z" style="fill:#ffffff"/><path d="m34.783 16.179a1.1101 1.4798 86.292 0 0-0.14781 0.0042 1.1101 1.4798 86.292 0 0-1.4053 1.2033 1.1101 1.4798 86.292 0 0 1.5489 1.0118 1.1101 1.4798 86.292 0 0 1.4053-1.2033 1.1101 1.4798 86.292 0 0-1.4011-1.016zm-0.16447 0.48092a0.64174 0.48678 86.292 0 1 0.52672 0.60791 0.64174 0.48678 86.292 0 1-0.44344 0.67245 0.64174 0.48678 86.292 0 1-0.5288-0.60999 0.64174 0.48678 86.292 0 1 0.44552-0.67037z" style="fill:#ffffff"/><path d="m41.195 20.453 6.8905 3.1415m0.48238-3.8614-7.3728 0.7198 7.3001 1.2259" style="fill:none;stroke-width:.21863;stroke:#ffffff"/><path d="m35.665 20.608-6.8329 3.2648m-0.55162-3.8521 7.3845 0.58731-7.2769 1.3567" style="fill:none;stroke-width:.21863;stroke:#ffffff"/><path d="m31.246 16.092c-0.0294-3.8164-1.0792-6.6929-0.53759-6.9836 0.74684-0.57052 3.8308 3.488 4.375 3.6359-1.3649 0.57354-2.3597 1.0967-3.8374 3.3476z" style="fill:#ffffff;opacity:.7"/><path d="m45.729 16.651c0.52551-3.3099 1.3206-6.8422 0.84755-7.1772-0.63028-0.60927-4.1197 3.2941-4.6525 3.3397 2.0953 1.0129 3.0743 2.4554 3.805 3.8375z" style="fill:#ffffff;opacity:.7"/><path d="m38.47 22.93v-1.01e-4c-4e-3 -7e-3 -8e-3 -0.01401-0.01212-0.02104-0.01996-0.03679-0.03815-0.07457-0.05431-0.1132-0.01591-0.03802-0.03009-0.07682-0.04225-0.11622-0.01212-0.03972-0.02211-0.08003-0.03019-0.12075-0.0086-0.04089-0.01513-0.08221-0.01969-0.12374-0.0025-0.02813-4e-3 -0.05634-0.0046-0.08455h-0.01055c-2.05e-4 0.01619-7.21e-4 0.03223-0.0014 0.0483-0.0029 0.04148-8e-3 0.08278-0.01512 0.12378-7e-3 0.04067-0.01619 0.08099-0.02718 0.12075-0.01102 0.03987-0.02428 0.07917-0.03924 0.11773-0.01511 0.03911-0.03227 0.07736-0.06638 0.14101-0.23635 0.41376-0.64801 0.6534-1.0942 0.65417-0.67195-7.71e-4 -1.2222-0.53434-1.2437-1.2059m2.6609 0.57978c0.22222 0.38781 0.6352 0.62684 1.0822 0.62637 0.67195-7.76e-4 1.2222-0.53434 1.2437-1.2059" style="fill:none;stroke-width:.29056;stroke:#ffffff"/><path d="m38.304 20.452a1.2458 1.2458 0 0 0-1.0792 0.62788 1.2458 1.2458 0 0 1 0.03924 0.0045 1.2458 1.2458 0 0 1 0.12075 0.02722 1.2458 1.2458 0 0 1 0.11773 0.03924 1.2458 1.2458 0 0 1 0.11471 0.05129 1.2458 1.2458 0 0 1 0.10715 0.0619 1.2458 1.2458 0 0 1 0.10113 0.07241 1.2458 1.2458 0 0 1 0.09357 0.08151 1.2458 1.2458 0 0 1 0.08605 0.09059 1.2458 1.2458 0 0 1 0.07547 0.09961 1.2458 1.2458 0 0 1 0.06489 0.10565 1.2458 1.2458 0 0 1 0.05435 0.1132 1.2458 1.2458 0 0 1 0.04225 0.11622 1.2458 1.2458 0 0 1 0.03018 0.12075 1.2458 1.2458 0 0 1 0.01968 0.12377 1.2458 1.2458 0 0 1 6e-3 0.12374 1.2458 1.2458 0 0 1-0.0014 0.03924h0.01056a1.2458 1.2458 0 0 1-0.0014-0.03924 1.2458 1.2458 0 0 1 0.0029-0.08903 1.2458 1.2458 0 0 1 0.01513-0.12377 1.2458 1.2458 0 0 1 0.02718-0.12075 1.2458 1.2458 0 0 1 0.03924-0.11773 1.2458 1.2458 0 0 1 0.05132-0.11471 1.2458 1.2458 0 0 1 0.06188-0.10715 1.2458 1.2458 0 0 1 0.07245-0.10112 1.2458 1.2458 0 0 1 0.08302-0.09357 1.2458 1.2458 0 0 1 0.09059-0.08455 1.2458 1.2458 0 0 1 0.09962-0.0755 1.2458 1.2458 0 0 1 0.10565-0.06493 1.2458 1.2458 0 0 1 0.1132-0.05431 1.2458 1.2458 0 0 1 0.11622-0.04225 1.2458 1.2458 0 0 1 0.12075-0.03171 1.2458 1.2458 0 0 1 0.07999-0.01212 1.2458 1.2458 0 0 0-1.0807-0.62637z" style="fill:#ffffff;stroke-width:.29056;stroke:#ffffff"/><path d="m36.799 36.143c-1.7681 3.2217-4.7859 4.0241-6.7441 4.037l17.859 0.01967c-1.1905-2.3956-3.7196-4.0717-6.4127-4.0616z" style="fill:#ffffff;opacity:.5"/><path d="m14.409 22.748c-1.4858-0.91699-3.1984-1.4001-4.9444-1.3948h-0.11981c-1.7087 0.02266-3.379 0.51022-4.8317 1.4101-1.4527 0.89992-2.633 2.1784-3.4144 3.6982-0.78135 1.5198-1.1342 3.2235-1.0208 4.9286 0.11342 1.7051 0.68887 3.3471 1.6646 4.75l12.141-1.951 8.3523-6.606z" style="fill:#ffffff;opacity:.7;stroke-width:1.7114"/><path d="m1.7426 36.14c6.6187-0.0483 10.889 0.20404 24.94 0.15151 3.1858 0.0051 5.7707-0.41301 7.0368-1.8654l-11.484-6.8432z" style="fill:#ffffff;stroke-width:1.707"/><path d="m30.044 24.861c-0.59974-4.44e-4 -1.1935 0.0779-1.7738 0.21652 0.76978-0.15923 1.5815-0.24372 2.288-0.1957-0.17114-0.0118-0.34308-0.02082-0.51423-0.02082zm1.3158 0.12492c0.1133 0.02068 0.22336 0.04896 0.33518 0.07494-0.11192-0.02535-0.22205-0.05476-0.33518-0.07494zm0.72866 0.1728c0.19 0.05548 0.37967 0.11713 0.56419 0.18737-0.18615-0.06885-0.37332-0.1332-0.56419-0.18737zm0.61832 0.20611c2.9142 1.1347 5.0881 4.0649 5.0881 7.297 0 0.64082-0.10987 1.2464-0.2873 1.8237 1.6762-3.9535 2.2729-7.3618 4.4219-8.1985-3.7989 1.0374-4.8771 1.0088-8.0944-0.51214l0.03747 0.13324c-0.37317-0.21625-0.76485-0.39165-1.1659-0.54337zm-6.2644 0.36225-4.2061 1.8561 5.2637 6.4922 5.1298 1.1513c1.2042-0.62778 1.943-1.6155 2.009-3.1374-0.50226-2.7534-3.7085-5.1603-6.5808-4.0118-1.7033 0.31824-2.3354-1.6195-1.6155-2.3504z" style="fill:#ffffff;opacity:.85;stroke-width:1.7114"/><path d="m32.042 49.063-0.0078 0.0059c0.02679 0.0014 0.05749-0.0038 0.08398-2e-3 -0.02536-0.0018-0.05078-0.0023-0.07617-0.0039z" style="fill:#ffffff;opacity:.7;stroke-width:1.6056"/><path d="m24.379 51.507 0.0039-0.0039-0.01367-0.0078z" style="fill:#ffffff;opacity:.7;stroke-width:1.6056"/><path d="m32.87 49.165c0.10629 0.0194 0.20955 0.04593 0.31445 0.07031-0.105-0.02378-0.20832-0.05137-0.31445-0.07031z" style="fill:#ffffff;opacity:.7;stroke-width:1.6056"/><path d="m33.553 49.327c0.17825 0.05204 0.35618 0.10989 0.5293 0.17578-0.17464-0.0646-0.35023-0.12496-0.5293-0.17578z" style="fill:#ffffff;opacity:.7;stroke-width:1.6056"/><g transform="matrix(.77277 0 0 .77277 3.2592 40.665)" style="fill:#ffffff;opacity:.5"><path d="m20.553-31.854c-2.2294-0.0011-4.4418 0.48611-6.4765 1.4413-2.5713 1.2067-4.7427 3.1146-6.2879 5.4905 0.029905-6.17e-4 0.058986-0.0077 0.088904-0.0081h0.15626c2.2594-0.0069 4.4757 0.61839 6.3984 1.805l10.124 6.1963 5.4446-2.3384c8.68e-4 -8.87e-4 0.0018-0.0018 0.0028-0.0028 0.08209-0.08335 0.17327-0.15957 0.28288-0.21552 0.59589-0.26124 1.3248-0.46828 2.0825-0.62502 0.0036-8.6e-4 0.0072-0.0018 0.01076-0.0028 0.0018-3.57e-4 0.0036 3.57e-4 0.0054 0 0.20813-0.04277 0.41078-0.08038 0.62233-0.11315 0.31773-0.05589 0.63691-0.09671 0.95908-0.12123 0.06392-0.0048 0.06043-0.0017 0.18858-0.01076 0.16972-0.0095 0.89898-0.0109 1.0695-0.01076 0.18649 0-0.18671-0.01172 0 0l0.07273-0.04311c-0.74461-2.9025-2.3297-5.5208-4.5557-7.527-2.2262-2.0063-4.9966-3.3101-7.9609-3.7501-0.74109-0.11-1.4848-0.16397-2.228-0.16434zm10.514 15.276c-26.637-1.7006-13.319-0.8503 0 0z" style="fill:#ffffff"/></g></svg>
