<svg id="bg" xmlns="http://www.w3.org/2000/svg" viewBox="0 0 48 48">
  <title>ActivityCenter_iconError2_R7_August2016</title>
  <g style="opacity: 0.85">
    <path d="M24,6a17.82,17.82,0,0,1,9.08,2.46,18.34,18.34,0,0,1,6.46,6.46,17.93,17.93,0,0,1,0,18.16,18.34,18.34,0,0,1-6.46,6.46,17.93,17.93,0,0,1-18.16,0,18.34,18.34,0,0,1-6.46-6.46,17.93,17.93,0,0,1,0-18.16,18.34,18.34,0,0,1,6.46-6.46A17.82,17.82,0,0,1,24,6Zm0,33.75a15.5,15.5,0,0,0,4.19-.56,15.78,15.78,0,0,0,11-11,15.9,15.9,0,0,0,0-8.38,15.78,15.78,0,0,0-11-11,15.9,15.9,0,0,0-8.38,0,15.78,15.78,0,0,0-11,11,15.9,15.9,0,0,0,0,8.38,15.78,15.78,0,0,0,11,11A15.5,15.5,0,0,0,24,39.75Zm7.79-22L25.6,24l6.19,6.21-1.58,1.58L24,25.6l-6.21,6.19-1.58-1.58L22.4,24l-6.19-6.21,1.58-1.58L24,22.4l6.21-6.19Z" style="fill: #a80000"/>
  </g>
</svg>
