<svg id="Layer_1" data-name="Layer 1" xmlns="http://www.w3.org/2000/svg" viewBox="0 0 24 24"><title>outlook</title><rect width="24" height="24" rx="2" style="fill:#2e76bc"/><path d="M6.15,17.22V6.77L14,5.36V18.59ZM7.9,12A3.52,3.52,0,0,0,8,13a2.59,2.59,0,0,0,.42.81,2,2,0,0,0,.7.56,2.24,2.24,0,0,0,1.64.1,2,2,0,0,0,.57-.33,1.84,1.84,0,0,0,.44-.48,2.69,2.69,0,0,0,.31-.61,3.27,3.27,0,0,0,.13-.56,5.44,5.44,0,0,0,0-.57,3.73,3.73,0,0,0-.12-.94,2.86,2.86,0,0,0-.38-.83,1.94,1.94,0,0,0-.65-.59,1.82,1.82,0,0,0-.92-.23,2.19,2.19,0,0,0-1,.22,2.08,2.08,0,0,0-.72.59A2.62,2.62,0,0,0,8,11,3.88,3.88,0,0,0,7.9,12Zm1-.06A2.76,2.76,0,0,1,9,11.41a1.75,1.75,0,0,1,.19-.53,1.06,1.06,0,0,1,.37-.39,1,1,0,0,1,.57-.15.81.81,0,0,1,.52.17,1.14,1.14,0,0,1,.33.42,1.8,1.8,0,0,1,.17.54,3.49,3.49,0,0,1,.05.53,2.62,2.62,0,0,1-.06.54,1.77,1.77,0,0,1-.17.52,1.17,1.17,0,0,1-.34.39.84.84,0,0,1-.53.16,1,1,0,0,1-.56-.15,1.2,1.2,0,0,1-.35-.39A1.69,1.69,0,0,1,9,12.55,2.76,2.76,0,0,1,8.89,12ZM19.27,8.45l-3.79,3.31-1-.86V8h4.39a.36.36,0,0,1,.28.12A.46.46,0,0,1,19.27,8.45Zm0,.9v6.09a.51.51,0,0,1-.12.32.36.36,0,0,1-.3.15H14.47v-4l.81.71a.31.31,0,0,0,.2.07.29.29,0,0,0,.2-.07Z" style="fill:#fff"/></svg>