<svg id="Layer_1" data-name="Layer 1" xmlns="http://www.w3.org/2000/svg" viewBox="0 0 24 24"><title>powerpoint</title><rect width="24" height="24" rx="2" style="fill:#d63f26"/><path d="M6.15,7.14,14,5.33v13.3L6.15,16.81Zm2.19,7.49,1,.12v-1.9l.51,0h.41a1.67,1.67,0,0,0,.65-.22,1.62,1.62,0,0,0,.48-.42,1.79,1.79,0,0,0,.31-.56,2.13,2.13,0,0,0,.1-.67,1.86,1.86,0,0,0-.4-1.27,1.57,1.57,0,0,0-1.24-.45l-.92,0c-.31,0-.61,0-.92.06ZM10.64,11a1,1,0,0,1-.21.66.85.85,0,0,1-.65.22H9.36V10.23l.24,0,.25,0a.75.75,0,0,1,.6.22A.86.86,0,0,1,10.64,11Zm8.2-3.84a.3.3,0,0,1,.15,0,.67.67,0,0,1,.14.11.76.76,0,0,1,.11.14.27.27,0,0,1,0,.14v8.75a.28.28,0,0,1,0,.15,1.34,1.34,0,0,1-.11.14l-.14.11a.42.42,0,0,1-.15,0H14.47V15.48H18V15h-3.5v-.88H18v-.43h-3.5V12.17a1.57,1.57,0,0,0,.42.18,1.74,1.74,0,0,0,.45.06,1.72,1.72,0,0,0,.68-.13,1.73,1.73,0,0,0,1.07-1.62H15.34V8.91a1.76,1.76,0,0,0-.45.07,1.57,1.57,0,0,0-.42.18v-2Zm-1.31,3.07a1.69,1.69,0,0,0-.14-.68A1.66,1.66,0,0,0,17,9a1.79,1.79,0,0,0-.56-.38,1.72,1.72,0,0,0-.68-.13v1.75Z" style="fill:#fff"/></svg>