<svg id="Layer_1" data-name="Layer 1" xmlns="http://www.w3.org/2000/svg" viewBox="0 0 24 24"><title>word</title><rect width="24" height="24" rx="2" style="fill:#30579b"/><path d="M6.15,7.14,14,5.33v13.3L6.15,16.81Zm1.08,2.4L8.16,14l.95.06.65-3,0-.06s0,0,0-.06a1.62,1.62,0,0,0,0-.2,1.49,1.49,0,0,1,0-.21h0a2.45,2.45,0,0,0,0,.27c0,.08,0,.17,0,.26l.66,3.06,1,.06,1.16-5-1,0-.58,3.29a2.56,2.56,0,0,0,0,.27,2.45,2.45,0,0,0,0,.27h0l0-.26a2.51,2.51,0,0,0,0-.27l-.67-3.21-1,.06-.68,3.07a2.61,2.61,0,0,0-.06.27,2.26,2.26,0,0,0,0,.27h0a2.45,2.45,0,0,0,0-.27l0-.26-.51-3ZM18.41,7.16a.45.45,0,0,1,.34.1.5.5,0,0,1,.09.34v8.75a.53.53,0,0,1-.09.35.49.49,0,0,1-.34.1H14.47V15.48H18v-.43h-3.5v-.89H18v-.43h-3.5v-.87H18v-.45h-3.5v-.86H18v-.44h-3.5v-.88H18V9.8h-3.5V8.91H18V8.48h-3.5V7.16Z" style="fill:#fff"/></svg>